<svg width="349" height="197" viewBox="0 0 349 197" fill="none" xmlns="http://www.w3.org/2000/svg">
<g clip-path="url(#clip0_1052_1646)">
<path d="M86.4119 102.622C85.7315 87.8256 86.7844 73.0649 87.2858 58.2971C87.5866 49.4435 87.7442 40.5828 88.0307 31.7293C88.2098 26.3312 88.4677 20.9258 88.7828 15.5349C88.9261 13.0688 90.7669 11.8572 92.751 10.8823C96.4757 9.04706 100.594 8.75313 104.562 8.59542C115.235 8.17963 125.829 6.99677 136.466 6.20819C146.981 5.42679 157.517 4.98949 168.053 4.58086C184.571 3.94284 201.081 3.08974 217.584 2.05743C227.39 1.44091 237.21 1.05379 247.038 0.709685C263.627 0.121839 280.23 -0.157746 296.833 0.0931638C306.904 0.24371 317.047 0.250879 326.996 1.92839C333.951 3.10408 339.237 6.5738 341.909 13.9792C347.61 29.765 349.122 46.067 348.993 62.5984C348.928 70.9859 347.94 79.3663 347.417 87.7539C346.371 104.608 343.485 121.268 342.245 138.101C341.637 146.352 341.3 154.625 340.168 162.826C339.574 167.12 338.643 171.321 336.924 175.429C334.316 181.651 329.546 184.49 323.372 184.985C312.326 185.867 301.253 185.946 290.265 184.075C283.503 182.928 276.706 182.397 269.851 182.583C260.941 182.827 251.987 181.96 243.134 183.451C229.962 185.666 216.71 187.236 203.445 188.648C187.787 190.311 172.186 192.663 156.371 192.376C150.311 192.269 144.294 191.53 138.263 191.086C133.249 190.713 128.243 190.785 123.236 191.071C113.53 191.616 104.126 190.67 95.3798 185.974C93.6106 185.021 92.4502 183.738 91.8986 181.773C89.7999 174.268 89.0049 166.547 88.1453 158.847C86.9635 148.216 86.4406 137.549 86.4263 126.853C86.4191 118.773 86.4263 110.701 86.4263 102.622H86.4119ZM87.6869 101.181C87.9806 118.566 87.7156 135.972 89.2985 153.313C90.1438 162.589 91.0821 171.859 93.2667 180.949C93.7538 182.978 94.8426 184.175 96.6547 185.136C103.796 188.921 111.446 189.867 119.368 189.666C125.349 189.509 131.337 188.863 137.318 189.451C151.608 190.856 165.89 191.114 180.18 189.451C201.711 186.956 223.3 184.999 244.695 181.415C249.795 180.562 254.96 181.013 260.095 180.841C267.638 180.583 275.223 180.153 282.708 181.272C295.558 183.193 308.423 184.29 321.423 183.422C327.648 183.006 332.719 181.056 335.319 174.669C337.583 169.106 338.779 163.45 339.037 157.457C339.366 149.714 340.061 141.993 340.677 134.265C341.458 124.394 342.919 114.594 343.972 104.744C345.268 92.6359 346.128 80.4846 346.873 68.3263C347.661 55.4439 346.658 42.6905 344.588 29.9873C344.344 28.5033 343.657 27.8366 342.203 27.3706C338.779 26.2595 335.226 26.7039 331.752 26.1806C323.694 24.9619 315.564 24.4529 307.42 24.7253C294.477 25.1626 281.541 25.7433 268.605 26.2523C259.107 26.6251 249.631 27.2201 240.161 28.0373C226.416 29.2274 212.706 30.7472 198.882 30.9551C189.907 31.0841 180.932 31.5286 171.986 32.3458C161.034 33.3495 150.104 34.5753 139.094 34.8549C131.029 35.0556 122.964 35.3209 114.898 35.579C107.22 35.8227 99.6273 37.2063 91.9345 37.278C89.3129 37.3067 89.0908 37.5217 89.055 40.2244C88.9977 45.1135 89.0049 49.9955 88.9118 54.8847C88.6109 70.3192 87.3073 85.7251 87.6869 101.174V101.181ZM109.662 9.96467C104.519 9.45568 100.594 10.0292 96.8625 11.0472C90.4661 12.7892 90.0291 13.3842 90.1939 19.1551C90.3371 24.116 89.3057 29.0123 89.2842 33.966C89.2771 35.6865 89.8501 36.3532 91.5763 36.1668C93.5819 35.9589 95.609 35.9589 97.6074 35.7295C108.674 34.475 119.776 33.9086 130.9 33.6362C139.94 33.414 148.986 33.1272 157.99 32.1379C171.513 30.654 185.072 29.5858 198.682 29.3277C205.515 29.1987 212.348 28.9765 219.153 28.3456C236.458 26.7541 253.749 25.0551 271.133 24.6178C285.896 24.245 300.63 22.9761 315.406 23.3633C324.381 23.5927 333.306 24.5103 342.174 25.8939C343.284 26.0659 343.642 25.7146 343.563 24.711C343.513 24.0658 343.485 23.3919 343.277 22.7826C341.909 18.7895 340.684 14.7391 338.929 10.8895C337.984 8.82482 336.53 7.14014 334.467 6.12934C331.895 4.86762 329.259 3.77078 326.409 3.23312C320.034 2.02875 313.566 2.35852 307.155 2.19364C289.133 1.742 271.105 1.84953 253.069 2.27249C235.498 2.68112 217.971 3.84964 200.422 4.77442C185.738 5.54866 171.04 6.09349 156.349 6.68134C146.923 7.06129 137.504 7.58461 128.114 8.57391C121.588 9.25495 115.02 9.57755 109.655 9.97184L109.662 9.96467Z" fill="#951E1A"/>
<path d="M49.5951 194.19C47.1956 192.355 45.6126 190.39 44.3663 188.197C39.1231 178.97 33.9516 169.701 28.7514 160.446C28.4362 159.887 28.1211 159.328 27.8202 158.811C27.0968 158.89 27.0825 159.421 26.9177 159.815C22.4195 170.576 18.3797 181.515 14.7051 192.584C14.3542 193.631 13.9459 194.663 13.4875 195.674C13.2296 196.233 12.9789 197.186 12.277 196.978C11.5034 196.749 11.9403 195.86 12.0764 195.279C12.3271 194.204 12.6494 193.143 12.9861 192.089C16.4672 181.085 20.6717 170.353 25.4135 159.829C26.137 158.231 26.5954 156.646 26.5524 154.775C26.2516 142.796 24.8548 130.86 25.213 118.859C25.2488 117.698 25.3705 116.53 25.4493 115.375C24.9623 115.175 24.8691 115.576 24.7116 115.798C18.659 124.365 12.3414 132.738 6.04532 141.119C4.39788 143.312 2.88653 145.585 1.53992 147.972C1.29639 148.402 1.03853 149.09 0.429691 148.818C-0.272263 148.503 0.0285747 147.807 0.257784 147.277C1.51844 144.381 3.43806 141.9 5.30755 139.398C11.4962 131.097 17.6992 122.802 23.9451 114.544C25.1986 112.888 26.0152 111.189 26.2229 109.074C26.6957 104.278 27.3403 99.5036 27.4549 94.6718C27.4979 92.901 26.975 92.1985 25.1198 91.9333C11.3601 89.9905 2.53555 77.6242 4.15434 63.7668C5.61555 51.2429 17.2909 39.701 31.7741 39.529C50.691 39.2996 62.8391 59.0569 54.2724 76.3267C49.5306 85.8899 41.5585 91.073 30.9933 92.1842C29.3244 92.3562 28.7442 92.8795 28.8015 94.557C28.9591 99.2526 28.6224 103.934 28.0781 108.594C28.0136 109.138 27.6985 109.841 28.3216 110.207C28.8445 110.515 29.2886 109.984 29.7184 109.726C41.6945 102.471 54.1507 96.0697 66.2343 89.0012C67.0795 88.5065 68.3616 87.1946 69.0493 88.3632C69.6223 89.3381 67.8674 89.8041 67.0508 90.2629C54.5804 97.3027 42.0885 104.3 29.5608 111.253C28.2285 111.992 27.6483 112.83 27.4478 114.393C26.3232 122.931 27.5265 131.419 27.7772 139.922C27.9277 145.062 28.1784 150.202 28.3359 155.342C28.3718 156.431 28.6654 157.342 29.2241 158.267C34.4315 166.912 39.8251 175.45 44.3376 184.497C45.4765 186.784 46.952 188.849 48.4419 190.906C49.0364 191.724 49.7169 192.541 49.588 194.175L49.5951 194.19ZM30.7856 90.7432C36.9528 90.5855 43.6786 87.4886 49.0006 81.4667C56.7149 72.7351 57.5601 59.8455 50.8916 50.7912C45.8705 43.9665 38.9011 41.1348 30.5206 41.4215C17.4055 41.866 5.80895 52.5906 5.12132 66.6415C4.46951 80.0258 15.3283 90.7432 30.7856 90.7504V90.7432Z" fill="#951E1A"/>
<path d="M205.708 121.569C198.338 121.275 191.032 122.107 183.704 122.695C178.776 123.089 173.819 122.831 168.877 123.125C165.503 123.326 162.137 123.82 158.749 123.605C158.226 123.569 157.703 123.591 157.187 123.541C156.736 123.498 156.149 123.448 156.142 122.888C156.142 122.243 156.772 122.329 157.195 122.344C161.7 122.494 166.148 121.62 170.632 121.576C178.196 121.512 185.717 121.024 193.238 120.286C197.07 119.913 200.909 119.791 204.748 119.992C211.603 120.351 218.401 119.576 225.22 119.168C231.451 118.795 237.683 118.394 243.914 118.1C254.372 117.605 264.851 117.583 275.259 116.264C275.961 116.178 276.878 115.97 277.021 116.924C277.164 117.935 276.14 117.92 275.488 118.014C269.299 118.96 263.053 119.139 256.808 119.376C243.349 119.877 229.89 120.3 216.467 121.519C212.914 121.842 209.311 121.569 205.73 121.569H205.708Z" fill="#951E1A"/>
<path d="M244.659 102.558C237.962 102.558 231.251 102.364 224.561 102.593C207.026 103.203 189.47 103.647 172.136 106.802C171.463 106.923 170.274 107.547 170.088 106.608C169.887 105.576 171.212 105.604 171.971 105.425C179.134 103.683 186.447 102.981 193.768 102.371C206.016 101.353 218.293 100.873 230.57 100.572C235.054 100.464 239.538 100.636 244.029 100.73C251.636 100.887 259.25 100.816 266.864 100.859C267.638 100.859 268.418 100.945 269.185 101.059C269.572 101.117 269.944 101.375 269.901 101.848C269.858 102.321 269.457 102.464 269.056 102.493C268.476 102.543 267.888 102.558 267.301 102.558C259.751 102.558 252.209 102.558 244.659 102.558Z" fill="#951E1A"/>
<path d="M259.221 71.7243C256.249 71.5379 252.882 71.2368 249.494 71.2583C231.516 71.3659 213.637 72.7495 195.802 74.9431C186.841 76.0471 177.838 76.85 168.791 77.1726C163.541 77.3662 158.247 77.187 153.033 78.0902C152.603 78.1619 151.987 78.3555 151.851 77.7892C151.679 77.0579 152.41 77.0077 152.883 76.9361C154.68 76.6565 156.478 76.3124 158.29 76.212C165.883 75.8106 173.49 75.6743 181.082 75.022C190.158 74.2406 199.19 73.1222 208.244 72.1759C216.259 71.3444 224.296 70.735 232.347 70.269C238.65 69.9034 244.967 70.3192 251.256 69.631C254.25 69.3012 257.209 70.2188 260.21 69.9751C262.28 69.8031 264.357 69.6668 266.434 69.5808C267.043 69.5521 267.924 69.4661 267.924 70.3909C267.924 71.2583 267.079 71.2368 266.441 71.2727C264.171 71.4232 261.9 71.5523 259.221 71.71V71.7243Z" fill="#951E1A"/>
<path d="M239.789 163.314C239.703 164.317 239.524 165.679 239.495 167.041C239.459 168.575 238.772 169.307 237.225 169.3C229.983 169.257 222.92 171.314 215.665 171.178C213.587 171.142 211.51 171.285 209.433 170.991C207.914 170.776 206.904 169.995 206.554 168.482C205.966 165.944 205.329 163.421 204.892 160.855C204.498 158.561 205.028 157.829 207.327 157.163C212.098 155.786 217.033 155.313 221.939 154.747C225.872 154.288 229.825 153.643 233.794 154.137C238.141 154.682 239.502 156.209 239.782 160.604C239.832 161.385 239.782 162.167 239.782 163.306L239.789 163.314ZM215.385 169.658C222.111 170.038 229.346 167.873 236.766 167.73C237.418 167.715 237.934 167.421 237.955 166.704C238.027 164.31 238.657 161.944 238.213 159.514C237.676 156.568 236.573 155.492 233.529 155.363C230.019 155.22 226.516 155.327 223.021 155.758C217.928 156.381 212.828 156.912 207.807 158.009C206.074 158.389 205.536 159.306 205.923 160.933C206.496 163.335 207.084 165.737 207.649 168.138C207.893 169.185 208.552 169.593 209.591 169.701C211.281 169.88 212.964 169.837 215.378 169.658H215.385Z" fill="#951E1A"/>
<path d="M276.276 87.3166C275.467 87.9546 274.543 87.7396 273.662 87.7539C262.022 87.8901 250.383 87.8399 238.75 88.3274C233.88 88.5281 229.002 88.3632 224.124 88.6643C217.505 89.073 210.866 89.0299 204.233 89.1662C203.617 89.1805 202.951 89.2522 202.342 88.7934C206.016 87.1015 273.425 85.7753 276.276 87.3238V87.3166Z" fill="#951E1A"/>
<path d="M173.332 93.403C173.275 93.403 172.716 93.4101 172.681 92.8295C172.638 92.1986 173.211 91.9549 173.733 91.876C176.491 91.4531 179.256 91.0373 182.028 90.686C185.058 90.306 188.095 89.9978 191.132 89.6608C191.454 89.625 191.791 89.5461 192.099 89.5963C192.722 89.711 193.524 89.7755 193.488 90.6358C193.46 91.3599 192.751 91.4674 192.163 91.5247C190.938 91.6394 189.699 91.6825 188.474 91.8115C183.561 92.3133 178.647 92.8366 173.332 93.3958V93.403Z" fill="#951E1A"/>
<path d="M256.091 14.6315C255.819 15.3054 255.339 15.3413 254.902 15.4129C250.411 16.1728 245.899 16.7177 241.329 16.4883C240.813 16.4596 240.297 16.3592 239.796 16.2445C239.438 16.1657 238.929 16.1155 239.001 15.5922C239.073 15.0688 239.574 15.1549 239.939 15.1692C244.638 15.4416 249.28 14.8538 253.935 14.3735C254.623 14.3018 255.361 14.1799 256.099 14.6315H256.091Z" fill="#951E1A"/>
<path d="M315.141 12.8107C314.869 13.4846 314.389 13.5205 313.952 13.5921C309.461 14.352 304.949 14.8969 300.379 14.6675C299.863 14.6388 299.347 14.5384 298.846 14.4237C298.488 14.3449 297.979 14.2947 298.051 13.7714C298.123 13.248 298.624 13.3341 298.989 13.3484C303.688 13.6208 308.33 13.033 312.985 12.5527C313.673 12.481 314.411 12.3591 315.149 12.8107H315.141Z" fill="#951E1A"/>
<path d="M332.497 11.6923C332.325 12.3662 332.024 12.402 331.752 12.4737C328.937 13.2336 326.108 13.7785 323.242 13.5491C322.92 13.5204 322.598 13.42 322.283 13.3053C322.061 13.2265 321.738 13.1763 321.781 12.653C321.824 12.1296 322.139 12.2157 322.369 12.23C325.312 12.5024 328.228 11.9146 331.143 11.4343C331.573 11.3626 332.038 11.2407 332.497 11.6923Z" fill="#951E1A"/>
<path d="M269.722 14.0724C275.359 15.2624 280.953 15.0043 286.526 13.5992C284.306 16.5815 273.454 16.9399 269.722 14.0724Z" fill="#951E1A"/>
<path d="M27.9133 74.6779C33.4788 74.8356 38.944 74.1617 44.3018 72.6491C44.9106 72.477 45.5983 72.1473 46.0925 72.8283C46.5079 73.409 46.0853 73.9466 45.8203 74.4556C44.5023 77.0149 42.9409 79.438 40.8422 81.4094C34.9114 86.9868 26.1584 85.553 22.1258 78.377C21.5384 77.3303 20.3351 76.0973 20.9582 75.0363C21.6172 73.9036 23.2217 74.7424 24.4035 74.685C25.5711 74.6277 26.7458 74.6707 27.9133 74.6707V74.6779ZM32.6981 83.1371C36.5087 83.0869 41.6444 79.4093 43.077 75.8392C43.1701 75.617 43.2847 75.2729 43.1772 75.1223C42.9194 74.728 42.4824 74.9073 42.1171 74.9933C36.258 76.3625 30.3057 76.5704 24.3248 76.3267C23.1142 76.2765 22.9065 76.7497 23.5297 77.696C25.7502 81.0653 28.823 82.9579 32.6909 83.1299L32.6981 83.1371Z" fill="#951E1A"/>
<path d="M50.4905 64.5412C49.8244 64.3189 49.7384 63.6953 49.588 63.1504C48.9075 60.6126 47.4535 58.7989 44.7603 58.3831C41.931 57.9458 39.7033 59.143 37.8983 61.2722C37.5617 61.6665 37.5115 62.6988 36.7809 62.3045C36.0933 61.9389 36.5374 61.1431 36.8311 60.5625C38.0774 58.0892 41.6803 56.297 44.7889 56.5981C47.6254 56.8705 50.0751 58.9065 50.8701 61.6521C51.2498 62.9569 51.1996 63.3368 50.4905 64.534V64.5412Z" fill="#951E1A"/>
<path d="M13.9675 65.344C13.5592 63.8314 14.2683 62.7131 15.0132 61.6736C18.4155 56.9063 25.7431 56.6912 29.4606 61.222C29.8187 61.6593 30.3703 62.2113 29.8689 62.7417C29.4534 63.179 28.8947 62.6844 28.4936 62.3976C27.3261 61.5661 26.2015 60.6915 24.8406 60.1753C20.5859 58.5695 16.6821 60.1753 14.8413 64.3189C14.6837 64.663 14.6551 65.086 13.9675 65.344Z" fill="#951E1A"/>
</g>
<defs>
<clipPath id="clip0_1052_1646">
<rect width="349" height="197" fill="white"/>
</clipPath>
</defs>
</svg>
