<svg width="137" height="200" viewBox="0 0 137 200" fill="none" xmlns="http://www.w3.org/2000/svg">
<g clip-path="url(#clip0_1052_1585)">
<path d="M55.3676 99.27C55.6237 105.152 56.2051 110.666 56.8452 116.172C57.5279 122.066 57.976 127.965 57.9493 133.884C57.9173 139.878 58.36 145.856 59.0961 151.821C59.1388 152.159 59.1975 152.505 59.3575 152.818C65.0969 163.997 69.0548 175.606 73.1034 187.198C74.4315 191.002 75.7544 194.807 77.0666 198.611C77.2159 199.036 77.4933 199.466 77.1732 200.004C76.2665 199.654 76.1011 198.953 75.8344 198.344C74.0742 194.323 72.8153 190.189 71.4018 186.089C68.0574 176.386 64.6969 166.692 60.403 157.214C59.9549 156.222 59.4375 155.245 58.7921 153.94C51.9645 168.506 47.0678 183.081 45.0515 198.252C44.3955 197.593 44.3741 197.593 44.3848 196.63C44.4275 192.471 45.5369 188.42 46.5664 184.37C48.8547 175.356 52.2099 166.567 55.8317 157.836C56.3544 156.576 56.8398 155.304 57.3679 154.04C57.7679 153.085 57.8373 152.129 57.7039 151.128C56.9678 145.618 56.5998 140.095 56.6851 134.556C56.8131 125.896 55.6717 117.294 54.8075 108.681C54.4982 105.623 54.3008 102.553 54.1301 99.4869C54.0874 98.6985 53.7621 98.1354 53.026 97.6098C49.5855 95.1529 46.3851 92.5124 43.1366 89.9053C34.6021 83.0643 25.6996 76.5236 16.3756 70.3375C11.5697 67.1464 6.71566 64.0053 1.69631 61.0228C1.20024 60.7266 0.757513 60.3637 0.341456 60.0008C0.090755 59.7839 -0.197284 59.4752 0.218773 59.2124C0.560152 58.9955 0.842858 59.2583 1.09889 59.421C5.84087 62.4327 10.6202 65.4069 15.3088 68.4645C25.7476 75.268 35.5889 82.5721 45.0729 90.1764C47.6119 92.2121 50.1456 94.2519 52.6899 96.2833C53.0206 96.5461 53.282 96.884 53.8047 96.9966C54.1781 96.7088 54.0074 96.3459 53.9914 96.033C53.57 89.1336 54.0181 82.2383 54.0874 75.3389C54.1088 73.2157 53.9754 71.0925 54.0661 68.9693C54.1141 67.818 53.5167 67.4801 52.1512 67.38C45.7983 66.917 40.1069 65.1107 35.1622 61.9655C27.1238 56.8515 23.0059 50.1147 21.9977 42.1349C21.475 37.9969 22.2964 33.9799 23.8327 30.0254C27.1131 21.5659 33.9407 15.5425 44.2834 12.0469C58.2107 7.34159 73.5194 11.1459 82.294 19.9141C95.7518 33.3584 91.4952 53.8731 73.2687 63.2128C68.0947 65.8658 62.4086 67.3758 56.1837 67.5051C55.1063 67.526 54.8289 67.7554 54.8982 68.6481C55.1169 71.4053 55.1223 74.1709 55.0902 76.9366C55.0156 83.4939 54.9142 90.0555 55.2289 96.6087C55.2556 97.1843 55.3356 97.7224 55.757 98.2313C62.798 106.758 67.7266 116.072 72.2766 125.516C75.4077 132.011 77.7387 138.719 80.6244 145.276C81.3978 147.032 82.2459 148.767 83.0461 150.515C83.1847 150.82 83.4995 151.262 83.0087 151.425C82.5073 151.591 82.3206 151.103 82.1339 150.82C81.1045 149.268 80.331 147.629 79.6003 145.985C76.3411 138.681 73.7541 131.206 70.2016 123.981C66.2011 115.834 61.8112 107.821 56.1891 100.263C56.0024 100.013 55.7837 99.7706 55.3676 99.2658V99.27ZM22.9365 39.2733C22.9472 44.3624 24.2167 48.8091 27.3425 53.1348C33.3219 61.4024 42.2672 66.2036 54.5888 66.4664C63.4967 66.6542 71.1831 64.0387 77.568 59.2041C89.8043 49.9395 92.3593 34.8601 83.7128 23.393C76.8905 14.3453 64.3128 9.61915 51.1964 11.5588C37.3278 13.607 29.1827 20.7942 24.5261 30.7596C23.2566 33.4793 22.9259 36.3743 22.9419 39.2733H22.9365Z" fill="#951E1A"/>
<path d="M113.306 0.488049C114.026 0.763359 114.032 1.23889 114.117 1.66437C114.597 4.02119 115.072 6.37801 115.531 8.73483C115.643 9.31465 115.803 9.7151 116.715 9.3063C119.323 8.14249 121.942 6.99537 124.566 5.85659C125.521 5.44362 125.9 4.90969 125.713 4.00033C125.457 2.7531 125.441 1.47666 125.303 0C126.284 0.475535 126.177 1.05118 126.247 1.5142C127.089 7.00788 128.242 12.464 129.314 17.9285C129.335 18.0411 129.383 18.1538 129.388 18.2622C129.399 18.6835 129.831 19.3259 129.058 19.4219C128.338 19.5136 128.327 18.8128 128.226 18.3999C127.34 14.8292 126.732 11.221 126.183 7.60856C125.937 5.99841 125.991 6.02761 124.257 6.79097C121.894 7.83381 119.51 8.83911 117.104 9.81938C116.144 10.2115 115.84 10.7079 116.027 11.5547C116.459 13.4943 116.72 15.4549 117.333 17.3737C117.429 17.6741 117.781 18.0828 117.157 18.2455C116.619 18.3832 116.384 17.9994 116.261 17.674C116.005 16.9858 115.76 16.2892 115.589 15.5842C114.437 10.7454 114.032 5.83156 113.173 0.963584C113.152 0.834272 113.242 0.696617 113.296 0.488049H113.306Z" fill="#951E1A"/>
<path d="M136.147 9.80273C136.44 12.1345 136.723 14.3287 136.989 16.527C137.022 16.7939 136.963 17.1068 136.525 17.1235C136.179 17.136 136.067 16.8774 136.04 16.6438C135.816 14.7249 135.475 12.8145 135.523 10.8831C135.533 10.5202 135.629 10.1573 136.147 9.80691V9.80273Z" fill="#951E1A"/>
<path d="M46.6037 34.1969C46.5877 36.8957 46.3743 39.5779 45.4462 42.1892C45.1262 43.0944 44.7954 44.2248 43.3179 44.2165C41.7924 44.2081 41.563 43.0235 41.3123 42.1308C39.8508 36.9249 40.1015 31.7524 41.9097 26.6175C42.1444 25.9543 42.6031 25.412 43.5686 25.3744C44.5127 25.3369 44.9128 25.9084 45.2062 26.4798C46.4703 28.9618 46.5717 31.5731 46.6037 34.1927V34.1969Z" fill="#951E1A"/>
<path d="M70.0629 34.906C70.1962 37.2628 70.0148 39.5987 69.0654 41.8596C68.7773 42.5479 68.4786 43.3488 67.3425 43.3279C66.2597 43.3071 65.8489 42.5562 65.5662 41.8638C64.158 38.4182 63.9927 34.8726 64.3127 31.3019C64.4621 29.6417 64.6968 27.9857 65.4116 26.3964C65.6729 25.8124 65.945 25.195 66.8731 25.1366C67.8919 25.0699 68.2919 25.7123 68.6173 26.3004C69.6095 28.1025 69.8282 30.038 70.0415 31.9568C70.1535 32.9329 70.0629 33.9215 70.0629 34.906Z" fill="#951E1A"/>
<path d="M44.214 52.1253C45.5422 55.0202 47.6758 57.2728 50.6309 59.0331C54.2101 61.1646 57.9919 61.1772 61.6244 59.0581C64.4355 57.4188 66.4624 55.2413 68.1746 52.8845C69.4175 51.1701 70.527 49.3972 71.7165 47.6619C71.9245 47.3533 72.0898 46.8026 72.6926 47.0112C73.3167 47.2281 72.8899 47.6911 72.6979 47.9957C70.5056 51.5538 68.2867 55.1037 64.7982 58.0278C62.4619 59.9841 59.7682 61.4775 56.1143 61.4608C53.8207 61.4525 51.8578 60.7642 50.1028 59.6963C47.4945 58.107 45.5262 56.109 44.2087 53.7271C43.8087 53.0055 43.8247 53.0013 44.214 52.1253Z" fill="#951E1A"/>
<path d="M135.453 6.92029L135.592 8.63472" stroke="#951E1A" stroke-width="1.5" stroke-miterlimit="10" stroke-linecap="round"/>
</g>
<defs>
<clipPath id="clip0_1052_1585">
<rect width="137" height="200" fill="white"/>
</clipPath>
</defs>
</svg>
