<svg width="65" height="75" viewBox="0 0 65 75" fill="none" xmlns="http://www.w3.org/2000/svg">
<g clip-path="url(#clip0_1033_1588)">
<path d="M23.0364 63.9988C23.5764 62.4797 22.6998 61.4875 21.2831 60.7607C21.1648 60.6989 21.0464 60.6371 20.9354 60.5608C18.8197 59.118 16.8334 58.7001 14.8064 60.8515C13.9372 61.7746 12.6907 62.3561 11.6032 63.0721C9.19526 64.6602 7.24966 64.6312 4.97856 62.7595C2.46334 60.6807 0.821047 58.0713 0.288412 54.8041C-0.0296896 52.8525 -0.233127 50.9809 0.484451 49.0548C1.80864 45.5077 7.09061 44.432 9.56884 47.2885C10.0756 47.87 10.5564 48.0154 11.2296 47.7246C11.2592 47.7101 11.2925 47.7028 11.3258 47.6955C12.9718 47.3176 14.1073 46.598 13.9113 44.6355C13.7966 43.4944 14.074 42.335 14.3256 41.2048C14.4365 40.7105 14.2775 40.5034 13.7522 40.4052C11.8288 40.0418 10.8597 38.9043 10.8043 36.9781C10.7562 35.2737 11.2259 33.7873 12.3356 32.3917C14.4994 29.6697 16.8667 27.162 19.6815 25.0869C20.3214 24.6144 20.0107 24.4 19.5669 24.0984C17.9505 22.9972 16.678 21.6452 16.2046 19.69C15.7977 18.0074 15.979 16.4737 17.2366 15.1726C17.7655 14.6239 18.1613 13.9552 18.8086 13.5045C19.1304 13.2828 19.2155 12.9158 19.2635 12.5451C19.6001 9.83757 20.3436 7.30086 22.4816 5.37107C22.7997 5.08397 22.8995 4.69147 22.8736 4.28443C22.6665 0.991801 25.9881 -1.2578 29.5538 0.744673C30.3786 1.20622 31.1332 1.31162 32.0394 1.17715C37.0661 0.421224 41.4493 1.87129 45.2998 5.03309C45.7104 5.37107 46.0581 5.45829 46.5759 5.28385C48.7101 4.5679 50.9886 5.38561 52.0502 7.21C53.3559 9.4487 53.0341 12.1599 51.2291 13.6245C50.7593 14.0061 50.5633 14.3731 50.6299 14.9691C50.7482 15.994 50.5522 17.0116 50.3783 18.0219C50.2526 18.7378 50.4338 19.2575 51.0071 19.7663C55.934 24.1601 59.6957 29.3644 62.2221 35.4263C63.0358 37.3815 64.0271 39.2677 64.5634 41.3247C65.4734 44.8281 64.974 48.128 62.9618 51.159C61.9816 52.6345 60.6131 53.6085 58.7377 53.6739C58.2421 53.6921 57.924 53.8156 57.776 54.3317C56.8624 57.5044 54.9279 60.0338 52.6161 62.3525C50.4671 64.5112 47.8705 66.1394 45.6401 68.1963C42.3111 71.2709 38.3533 73.248 34.022 74.5018C31.2404 75.3086 28.4996 75.2104 26.0546 73.3824C25.0523 72.6301 24.4826 71.5871 24.0388 70.4714C23.2287 68.4471 22.8847 66.3429 23.0327 63.9843L23.0364 63.9988ZM30.7337 50.5412C29.3725 50.0614 28.2407 51.5697 26.898 50.7011C26.6243 50.523 26.48 50.9482 26.2803 51.1008C25.8697 51.4134 25.448 51.417 25.3704 50.8791C25.2557 50.0941 25.522 49.3528 26.2063 48.8767C26.6391 48.575 27.0311 48.7168 27.2272 49.251C27.3566 49.6108 27.4084 50.145 27.9189 50.0869C28.4663 50.0251 28.5625 49.4836 28.6586 49.0257C28.6845 48.8948 28.6845 48.7604 28.7178 48.6332C28.7881 48.3606 28.9139 48.1171 29.2505 48.1535C29.5353 48.1862 29.5797 48.426 29.6425 48.6586C29.7239 48.9675 29.391 49.5272 29.9532 49.5308C30.3897 49.5308 30.4489 48.9748 30.582 48.6114C30.6486 48.426 30.6745 48.2261 30.7115 48.0335C30.7744 47.721 30.7337 47.274 31.185 47.2885C31.6436 47.303 31.5807 47.7537 31.5918 48.0662C31.6732 50.3122 31.725 52.5654 31.27 54.7787C31.0999 55.6109 31.2478 56.0434 32.143 56.2833C34.1736 56.8248 35.4941 58.1622 36.1858 60.0956C36.319 60.4627 36.3893 60.8624 36.4114 61.2549C36.4262 61.4984 36.3819 61.8364 36.0268 61.8509C35.7235 61.8655 35.6976 61.5711 35.6347 61.3567C35.5903 61.1968 35.5792 61.0296 35.5348 60.8733C34.7359 57.9296 30.7707 55.8617 28.0853 57.0138C26.0694 57.8787 24.7563 59.3833 24.3754 61.5166C23.8871 64.235 23.7983 66.9353 24.7711 69.6246C25.7772 72.4012 27.6193 73.8113 30.6116 73.913C32.6793 73.9821 34.5842 73.4951 36.441 72.6156C38.7676 71.5144 41.2422 70.6894 43.258 69.0322C46.2208 66.5973 49.2206 64.2023 52.0909 61.6656C54.2954 59.7213 55.7676 57.2245 56.9475 54.5679C57.2101 53.9755 57.2138 53.5103 56.4519 53.2487C55.5456 52.9361 55.0056 52.2129 54.5506 51.4207C53.2412 49.142 52.2573 46.7143 51.377 44.2575C50.3783 41.4701 50.1601 38.5118 49.5683 35.6335C49.5239 35.4191 49.4203 35.1029 49.7014 35.0302C50.0528 34.9393 50.1083 35.3064 50.1934 35.5353C50.7926 37.1599 51.0219 38.868 51.3326 40.5542C52.0576 44.4756 53.6555 48.0626 55.6677 51.4752C56.7404 53.2923 59.9954 53.325 61.4416 51.7405C63.9975 48.9421 64.2934 45.6785 63.7275 42.186C63.2651 39.3331 61.8596 36.8182 60.7055 34.227C58.427 29.11 55.0241 24.7344 50.9221 20.9039C49.7384 19.7954 49.302 18.6688 49.6423 17.1242C49.8309 16.2666 50.0121 15.358 49.7347 14.4749C49.535 13.8352 49.7347 13.4827 50.3044 13.1011C51.9836 11.9781 52.3313 9.85574 51.2476 7.8787C50.3487 6.23966 48.4068 5.54915 46.5981 6.31234C45.8953 6.61035 45.3923 6.5195 44.8855 6.00707C44.2752 5.39288 43.6279 4.82957 42.8438 4.41163C39.2707 2.51455 35.5496 1.3843 31.4365 2.1802C30.6264 2.33647 29.9532 2.13296 29.2653 1.66777C28.3257 1.02814 27.2272 0.781015 26.0916 1.04268C24.5122 1.40611 24.0129 2.14386 23.7835 4.30987C23.7355 4.76779 23.7614 5.24024 23.3841 5.60003C21.3386 7.53709 20.4768 9.9793 20.2289 12.6905C20.1624 13.41 19.8184 13.9479 19.2524 14.4567C18.4424 15.1872 17.6471 15.9831 17.2181 17.0079C16.5856 18.5198 17.3438 20.8566 18.6865 22.1613C19.9515 23.3897 21.5457 23.9821 23.103 24.6798C25.8253 25.901 28.5255 27.2165 31.6769 26.6932C31.9099 26.6532 32.191 26.675 32.2354 26.9767C32.2724 27.2384 32.0542 27.3983 31.8397 27.4964C31.2146 27.7871 30.5451 27.8453 29.8682 27.7944C27.6969 27.6236 25.6515 26.984 23.7022 26.0572C22.2041 25.3449 22.2374 25.3594 21.3312 26.6678C18.9491 30.0949 17.4437 33.8927 16.2416 37.8322C14.9322 42.1315 14.0888 46.4417 15.8384 50.8355C15.9383 51.0863 16.0455 51.3661 15.7126 51.5224C15.3539 51.6932 15.1245 51.4715 14.9914 51.1844C14.7953 50.7665 14.6622 50.3195 14.4624 49.9015C14.1443 49.2256 14.418 48.1644 13.6672 47.8736C12.9755 47.6083 12.2653 48.3679 11.5181 48.546C10.9855 48.6732 10.6785 48.9203 10.856 49.5272C10.9152 49.7235 11.0188 50.0396 10.7007 50.116C10.4085 50.1886 10.3419 49.8797 10.2346 49.6871C10.1718 49.5708 10.1385 49.44 10.0756 49.3237C8.94374 47.1577 6.91306 46.1219 4.78992 46.6271C2.44854 47.1868 0.939411 49.1238 0.932013 51.5478C0.924615 53.0815 1.07997 54.6043 1.56452 56.0471C2.45594 58.7073 3.95028 60.9715 6.38043 62.5633C7.74161 63.4537 9.0658 63.4355 10.4455 62.6432C12.539 61.4439 14.5845 60.1719 16.4709 58.6783C16.9961 58.2639 17.44 58.2131 18.0318 58.4602C19.5521 59.0889 21.0538 59.7649 22.4187 60.6734C23.1252 61.1423 23.4211 61.1205 23.7651 60.2628C24.8155 57.6389 26.6576 55.9271 29.6758 55.7636C30.0013 55.7454 30.3009 55.7381 30.3379 55.3347C30.4859 53.703 30.8188 52.0821 30.73 50.5412H30.7337ZM21.457 25.0941C20.9428 25.0542 20.7542 25.2613 20.5397 25.4103C17.3623 27.649 14.8323 30.4946 12.6056 33.6201C12.0286 34.4305 11.7438 35.3427 11.729 36.3167C11.7142 37.3161 11.8177 38.3083 12.6944 39.017C13.7412 39.8637 14.603 39.6275 15.021 38.4028C16.0012 35.5244 16.8519 32.6025 18.3092 29.9023C19.2007 28.2487 20.24 26.6859 21.457 25.0978V25.0941Z" fill="#951E1A"/>
<path d="M23.0476 19.1125C22.0489 19.138 20.4177 17.7097 20.2956 16.5395C20.2253 15.8599 20.5952 15.5073 21.2277 15.5437C22.7776 15.6382 24.2978 15.9289 25.6627 16.6885C26.5615 17.19 26.5541 17.8514 25.7255 18.4729C24.9858 19.0253 24.1017 19.0398 23.0513 19.1089L23.0476 19.1125Z" fill="#951E1A"/>
<path d="M23.4838 51.9735C23.4505 50.3635 23.3951 48.8953 23.5948 47.4234C23.7538 46.2641 23.7095 46.235 22.5998 46.6238C22.3557 46.7111 22.0376 46.9146 21.8822 46.6129C21.7306 46.3149 22.0635 46.1114 22.2965 46.0387C23.8093 45.5663 23.9314 44.3488 24.0609 43.0696C24.4677 39.0028 25.5182 35.0851 26.9866 31.2728C27.1864 30.7494 27.4712 30.2588 27.7412 29.7646C27.8522 29.561 28.0519 29.3248 28.296 29.4666C28.5846 29.6337 28.3293 29.8736 28.2406 30.0662C27.0458 32.6284 26.1692 35.2923 25.5404 38.0361C25.0891 40.0022 24.7858 41.9902 24.5639 43.9927C24.4899 44.6832 24.6971 44.734 25.2593 44.4615C25.6292 44.2834 26.221 43.8509 26.4133 44.2689C26.6648 44.8104 25.9066 44.9485 25.5256 45.0938C24.5639 45.4609 24.2347 46.1332 24.2051 47.0854C24.1644 48.4046 24.0646 49.7202 23.9758 51.0358C23.9573 51.3157 24.035 51.6391 23.4801 51.9698L23.4838 51.9735Z" fill="#951E1A"/>
<path d="M35.8048 47.347C37.0624 47.3543 38.0673 46.9497 38.8194 46.1332C38.8416 46.1077 38.8601 46.0787 38.886 46.0605C39.2965 45.7625 39.7589 45.0901 40.1991 45.4717C40.6059 45.8206 39.8958 46.2204 39.6368 46.5584C39.045 47.3325 38.6049 48.1756 38.2979 49.0915C38.2054 49.3713 38.0907 49.6875 37.706 49.662C37.3768 49.6439 37.3029 49.3495 37.2215 49.0987C37.0957 48.699 36.8923 48.3392 36.4336 48.2956C35.9417 48.2483 36.0305 48.7353 35.8788 48.997C35.631 49.4185 35.3425 49.8038 34.7876 49.6947C34.3142 49.6003 34.2143 49.175 34.1884 48.768C34.1588 48.2738 34.107 47.725 34.7432 47.5396C35.1575 47.4161 35.5977 47.3761 35.7937 47.3434L35.8048 47.347Z" fill="#951E1A"/>
<path d="M34.7766 15.4601C33.5264 15.4819 32.2022 13.4758 32.6905 12.4292C32.9383 11.8949 33.3896 11.7677 33.9444 11.8804C35.006 12.0912 36.0047 13.5776 35.7753 14.617C35.6496 15.1876 35.2242 15.3984 34.7766 15.4601V15.4601Z" fill="#951E1A"/>
<path d="M22.8144 11.3534C22.2965 11.2952 21.8896 11.0627 21.8933 10.4376C21.8933 9.80521 22.6997 9.07836 23.4025 9.08563C24.0091 9.09289 24.3383 9.42361 24.3494 10.0124C24.3605 10.6811 23.5726 11.3716 22.8144 11.3534V11.3534Z" fill="#951E1A"/>
<path d="M32.8642 44.8722C33.3081 45.0721 33.2489 45.3664 33.2415 45.6099C33.2008 46.9546 33.1416 48.2957 33.0824 49.6367C33.0713 49.8657 33.0676 50.1491 32.7569 50.16C32.4758 50.1709 32.3538 49.9202 32.3427 49.6839C32.2687 48.0631 32.4055 46.4676 32.8605 44.8722H32.8642Z" fill="#951E1A"/>
</g>
<defs>
<clipPath id="clip0_1033_1588">
<rect width="65" height="75" fill="white"/>
</clipPath>
</defs>
</svg>
