<?xml version="1.0" encoding="UTF-8"?><svg id="Layer_2" xmlns="http://www.w3.org/2000/svg" viewBox="0 0 300 120"><defs><style>.cls-1{fill:#951e1a;}</style></defs><g id="Layer_2-2"><g id="Layer_1-2"><g><path class="cls-1" d="M69.74,102.76c-4.04-.62-5.83-1.35-8.76-1.55-5-.36-9.84-1.7-14.86-1.95-2.9-.14-5.77-.88-8.64-1.35-1.24-.21-2.31-.56-2.91-1.8-2.8-5.72-5.53-11.46-8.53-17.08-2.46-4.63-4.66-9.34-6.32-14.27-2.78-8.25-5.8-16.43-7.74-24.9-1.42-6.21-3.85-12.12-6.03-18.07C3.95,16.4,2.64,10.87,.78,5.48-.83,.78-.21,.28,5.16,.08c6.95-.27,13.86,.21,20.77,.77,5.83,.47,11.68,.61,17.52,.8,6.24,.21,12.48,.76,18.68,1.54,6.21,.78,12.45,1.23,18.66,1.58,9.51,.53,18.98,1.33,28.44,2.39,7.71,.86,15.47,.93,23.19,1.64,9.47,.87,18.95,1.71,28.42,2.5,1.91,.16,2.69,.87,3.07,2.79,2.04,10.17,3.21,20.45,4.71,30.68,1.18,8.07,1.95,16.18,3.36,24.22,.7,4.06,.67,4.13,4.76,4.95,12.76,2.54,25.43,5.52,38.28,7.65,3.6,.6,7.14,1.54,10.71,2.34,2.67,.6,3.59,2.74,1.98,4.86-.62,.81-1.59,1.39-2.43,2.03-6.04,4.65-12.89,8.17-19.43,12.09-7.04,4.21-13.71,8.86-20.29,13.64-3.28,2.39-6.67,3.46-10.87,3.46-7.7,.01-15.12-1.51-22.57-2.9-1.92-.36-9.55-.75-11.24-2.11,.78-1.25,7.38,.23,8.36,.41,7.6,1.36,15.23,2.55,22.95,3.12,1.52,.11,3.16,.7,4.85-.46-13.58-.47-26.41-3.63-39.35-6.1-.62-.12-1.39-.03-1.79-1.07-.63-1,2.63,.43,3.93,.32,1.4-.11,2.82,.61,4.28,.86,8.77,1.5,17.5,3.19,26.33,4.35,.8,.11,1.63,.12,2.44,.06,4.01-.33,4.44-1,3.87-4.79-2-13.31-3.92-26.63-5.87-39.95-1.51-10.24-3.2-20.46-4.49-30.72-1.06-8.47-2.13-16.93-3.72-25.32-.58-3.06-.57-2.96-3.78-3.25-7.43-.68-14.89-1.03-22.3-1.97-4.16-.52-8.4-.78-12.6-.86-8.72-.16-17.31-1.48-25.98-2.17-4.73-.38-9.47-.77-14.22-1.01-7.86-.41-15.7-1.06-23.54-1.89-6.07-.63-12.12-1.4-18.25-1.37-7.35,.04-14.66-.59-21.97-1.25-5.43-.48-10.87-.29-16.31-.16-1.61,.04-2.18,.63-1.8,2.17,1.52,6.14,3.18,12.24,5.44,18.17,2.37,6.19,4.67,12.39,6.37,18.8,2.75,10.41,5.94,20.71,10.26,30.63,2.8,6.44,6.16,12.66,9.31,18.96,1.04,2.08,2.55,3.44,5.21,3.77,5.88,.75,11.75,1.65,17.57,2.76,6.06,1.15,12.29,1.15,18.3,2.97,2.67,.81,5.85,1.02,8.85,1,4.36-.03,8.53,1.18,12.79,1.79,.46,.06,.84,.58,1.92,1.38-10.16-1.95-19.77-2.27-29.19-4.07-5.83-1.11-10.99-2.03-17.52-2.73-5.09-.99-9.88-1.18-14.77-1.58,4.74,1.51,9.04,2.34,14.18,2.86,2.37,.62,3.8,.44,5.48,.59,9.47,.83,18.69,3.01,28.02,4.54,10.81,1.77,21.67,3.3,32.5,4.97,8.01,1.24,15.82,3.39,23.73,5.04,1.19,.25,2.4,.4,3.59,.61,.83,.15,1.09,.64,.82,1.39-3.05,.47-5.65-1.18-8.51-1.65-4.23-.7-8.55-1.48-12.59-2.58m-22.16-3.57c-1.21-.31-2.3-.26-3.24-.58-7.11-1.19-14.23-2.39-21.34-3.57m101.93,9.94c14.93-10.62,31.12-18.81,47.11-28.61-6.51-1.56-12.27-2.74-18.13-3.61-5.88-.86-11.69-2.17-17.53-3.29-5.77-1.1-11.34-3.16-17.4-3.73,.27,1.6,.64,2.72,.61,3.85-.05,2.24,1,3.07,3.29,3.51,6.78,1.29,13.5,2.86,20.24,4.33,1.98,.43,3.98,.83,5.92,1.41,2.04,.6,2.21,1.54,.66,2.96-.29,.27-.61,.52-.95,.72-7.43,4.36-13.86,10.01-20.92,14.82-2.94,2-4.46,3.98-2.87,7.64h0Zm-1.03-6.35c8.67-5.91,16.09-12.36,24.49-17.57,.1-.06,.16-.23,.16-.35,0-.52-.51,.09-.07-.48-9.32-2.07-18.57-4.11-28.12-6.23,1.2,8.32,2.32,16.09,3.56,24.63h0Zm49.26-21.11c-.91,.46-1.37,.65-1.8,.91-7.98,4.87-15.97,9.73-24.17,14.29-6.9,3.84-13.64,7.94-20.04,12.51-.76,.54-1.62,.95-2.1,1.78-.41,.72-.68,1.5,.04,2.11,.6,.5,1.27,.09,1.83-.29,2.87-1.95,5.79-3.83,8.6-5.87,4.97-3.59,10.07-6.94,15.38-10.1,6.55-3.89,13.36-7.4,19.46-11.94,1.04-.78,2.4-1.26,2.8-3.41h0Z"/><path class="cls-1" d="M292.36,38.41c.18,2.06-.91,2.6-1.55,3.34-3.3,3.78-6.56,7.6-10.06,11.22-2.78,2.87-1.72,6.04-1.19,9.14,.25,1.5,2.05,1,3.15,1.05,4.4,.16,8.6,1.02,12.59,2.8,1.63,.73,3.36,1.58,3.82,3.28,.58,2.08,.9,4.28,.88,6.43-.04,4.45-.41,8.9-.58,13.36-.1,2.57-.12,5.15-.12,7.73,0,3.34-2.52,5.08-4.93,6.66-6.96,4.56-14.82,5.47-23,4.43-2.54-.33-5.05-.9-7.47-1.84-7.86-3.06-10.75-7.09-10.68-15.12,.04-3.96,.5-7.97-.01-11.86-.3-2.26-.31-4.48-.46-6.72-.17-2.71,1.15-4.37,3.49-5.6,2.65-1.39,5.51-2.22,8.45-2.73s5.92-.82,8.9-1c4.33-.25,4.25-.16,3.94-4.47-.16-2.21-.99-3.74-2.95-5.12-4.25-2.99-8.6-5.89-12.46-9.36-.56-.51-1.41-.85-1.36-2,1.42-.56,2.13,.64,2.96,1.25,3.44,2.53,6.79,5.16,10.22,7.71,.69,.51,1.38,1.5,2.45,.86,.97-.58,.49-1.63,.5-2.49,0-.91-.04-1.81-.1-2.72-.13-1.8,.16-3.8-.55-5.37-.82-1.8-3.32-1.13-5.03-1.72-4.92-1.7-8.93-6.39-9.19-10.9-.44-7.6,6.13-12.83,14.54-11.55,5.27,.8,9.9,4.82,11.11,9.66,1.35,5.42-1.53,10.82-7.33,12.66-2.45,.78-2.75,1.79-2.39,3.83,.48,2.75,.21,5.62,1.26,8.72,4.57-4.4,8.04-9.32,13.17-13.53h0Zm-37.3,53.33c-.12-.14-.25-.28-.37-.41-.03,.1-.11,.21-.08,.3,.1,.3,.27,.32,.49,.07-.76,1.93,.67,3.07,1.79,4.24,1.58,1.65,3.61,2.72,5.77,3.53,5.95,2.25,12.12,2.79,18.42,1.95,4.49-.59,8.77-1.82,12.51-4.33,2.07-1.39,3.92-3.01,4.27-6.49-3.74,3.33-7.51,5.04-11.66,5.85-10.98,2.15-21.55,1.53-31.14-4.73Zm41.98-4.53c-14.62,7.16-28.79,5.89-42.61-1.92-.01,2.71,.11,3.35,1.63,4.77,.95,.9,2.01,1.8,3.21,2.33,11.35,5.15,22.76,5.01,34.11,0,1.96-.86,3.71-2.17,4.46-4.28,.45-.51,.73-1.05,.07-1.56-.06-.05-.57,.43-.87,.66h0Zm-10.81-58.04c-.05-5.91-5.44-10.68-12.07-10.7-6.02-.03-10.66,4.15-10.59,9.51,.08,5.81,5.64,10.74,12.13,10.78,5.94,.04,10.58-4.19,10.53-9.6h0Zm-6.43,35.38c0,.71-.13,1.22,.02,1.66,.74,2.25-.05,3.9-1.9,5.37-1.89,1.51-3.62,3.22-5.75,5.15,5.61,.57,10.59,.09,15.46-.78,2.82-.51,5.77-1.22,8.24-2.89,2.61-1.76,2.66-3.41,.09-5.08-.66-.43-1.42-.76-2.17-1.03-4.46-1.6-9.1-2.17-13.98-2.4h0Zm-5.84-.09c-5.32,.27-9.87,.89-14.25,2.42-1.55,.54-3.02,1.2-4.18,2.33-.66,.65-1.25,1.34-.77,2.4,.95,2.1,6.61,4.37,8.81,3.38,4.53-2.05,8.78-4.63,13.54-6.24,1.35-.46,1.34-1.33,1.06-2.48-.27-1.13-.58-1.95-2.04-1.82-.94,.09-1.9,.01-2.16,.01h0Zm-1.59,20.46c-.06,1.15-.1,2.02-.16,2.89-.08,1.26,.54,1.9,1.86,2,6.85,.53,13.56,.05,19.82-2.86,3.67-1.71,4.38-3.3,3.86-7.48-7.61,5.22-16.35,5.72-25.38,5.46h0Zm24.92,11.4c-9.28,8.19-29.54,10.24-42.21,.63,1.77,3.84,4.72,5.73,8.04,7.18,8.15,3.54,16.47,3.49,24.87,.91,2.75-.84,5.2-2.22,7.35-4.03,1.36-1.14,2.43-2.45,1.95-4.68h0Zm-25.96-17.78c.04,.87,.04,1.39,.11,1.9,.4,2.89,.4,2.92,3.47,2.98,5.87,.1,11.63-.5,17.14-2.58,2.05-.77,3.9-1.82,5.33-3.42,.94-1.06,1.67-2.24,.76-3.88-8.25,4.78-17.33,4.97-26.81,5h0Zm-16.46,1.25c.24,4.17,2.92,6.39,8.96,7.7,.15-3.42,.22-3.71-.99-4.08-2.78-.86-5.23-2.34-7.97-3.62h0Zm-.64-5.72c.43,4.21,3.01,6.27,9.41,7.35-1.17-1.51,.55-3.65-2.03-4.32-2.57-.67-4.93-1.77-7.38-3.03h0Zm11.52,10.2c.07,3.04,1.57,4.59,4.49,4.65,.42-3.69,.76-4.42-4.49-4.65Zm3.82-1.21c.12-5.22-.25-5.54-4.87-4.68,.24,2.62,1.86,4.18,4.87,4.68Zm-4.31-7.23c4.4,1.1,5.23,.7,11.07-5.45-4.16,2.05-7.54,3.71-11.07,5.45Z"/><path class="cls-1" d="M75.42,63.11c.82,.5,1.69,.36,2.13-.34,.52-.83,.37-1.58-.76-2.17-1.4-.73-.91-2.06-.36-3.06s1.42-1.87,2.21-2.75c.73-.81,1.45-1.49,.46-2.64-1.09-1.28-.67-2.54,.17-3.92,1.08-1.75,1.84-3.68,2.7-5.56,.51-1.1,1.41-1.58,2.59-1.43,3.87,.46,7.5,1.81,11.11,3.11,1.48,.53,2.29,1.9,1.15,3.47-1.41,1.95-.68,3.34,1.06,4.63,2.45,1.82,3.83,4.33,4.76,7.08,.93,2.76,.81,5.06-1.88,7.26-2.29,1.87-3.65,4.73-6.25,6.46-1.22,.81-2.34,1.77-3.53,2.62-.65,.46-1.35,.89-2.1,1.17-3.51,1.31-6.01-.04-6.79-3.62-.81-3.73-1.23-3.93-4.49-2.02-2.35,1.37-3.46,1.18-5.14-.95-.49-.61-.91-1.3-1.21-2.01-1.44-3.31,.35-5.59,4.17-5.32h-.01Zm5.77-14.04c2.06,.46,2.17,.53,1.28,1.82-.58,.85-.49,1.27,.28,1.87,1.07,.85,2.89,.63,3.57,2.14-.94,.47-1.72,.31-2.49-.02-1.54-.66-2.18-.36-2.86,1.35-1.25,3.14-1.7,6.38-2.08,9.96-1.28-1.53-3.08-.24-4.16-1.58-.43-.53-1.59-.11-2.03,.68-1.06,1.88,.32,3.21,1.32,4.53,.83,1.1,1.98,1.33,3.15,.36,.96-.78,1.98-1.48,3.3-1.08,1.3,.38,2.17-.11,3.25-.77,2.32-1.4,3.7-.64,4.61,2.27-.51,.2-.67-.22-.93-.47-.74-.72-1.38-1.77-2.68-1.26-1.2,.47-1.24,1.61-1.3,2.64-.04,.64-.06,1.3,.03,1.94,.31,2.27,1.55,3.09,3.95,2.67,1.1-.19,2.06-.65,2.91-1.33,1.98-1.58,4.03-3.09,5.92-4.75,2.31-2.02,2.14-2.02,.62-4.66-1.3-2.25-2.6-4.59-2.17-7.42,1.44,.26,1.13,1.25,1.42,1.89,.64,1.43,1.19,2.89,1.85,4.3,.34,.73,.88,1.37,1.85,1.2,1.07-.19,1.63-.88,1.68-1.91,.07-1.3,.03-2.55-.52-3.8-1.01-2.28-2.07-4.51-4.03-6.22-1.98-1.74-3.06-3.59-1.47-6.12,.56-.9,.43-1.85-.89-2.02-3.07-.38-5.72-2.07-8.82-2.44-2.21-.26-4.25,.88-3.39,2.65,.82,1.69,.04,1.43-.87,1.88-.4,.19-.53,.86-.78,1.32-.7,.82-1.29,1.65-.21,2.59,.14,.13,.52,.21,.64,.12,1.09-.73-.1-1.55,.04-2.32h.01Zm-3.78,11c1.4-1.46,1.79-2.53,2.02-4.1-1.36,1.02-2.19,1.85-2.02,4.1Z"/><path class="cls-1" d="M96.09,102.87c11.58,2.1,30.26,5.17,41.68,7.97-.07,.31,1.44,1.09,1.37,1.4-11.55-2.14-31.65-6.24-43.2-8.37l.13-.99h0Z"/><path class="cls-1" d="M281.14,32.39c-.42,4.74-4.41,7.06-7.87,4.81-.79-.51-1.5-1.16-1.39-2.19,.11-.98,1.09-1.1,1.81-1.27,2.34-.57,4.65-1.28,7.44-1.35Zm-1.67,2.16c-2.23-.56-3.86,.46-6.17,.83,2.72,1.67,4.46,1.19,6.17-.83Z"/><path class="cls-1" d="M280.06,27.89c.04,.73,.05,1.48-.78,1.63-.84,.16-1.17-.55-1.3-1.16-.31-1.38-.52-2.79-.73-4.19-.07-.43,.26-.71,.64-.88,.64-.31,1.19,.09,1.31,.52,.39,1.36,.61,2.77,.88,4.08h0Z"/><path class="cls-1" d="M270.07,23.89c1.54,1.12,1.44,2.49,1.53,3.69,.08,1.1,1.48,2.98-.58,3.17-1.39,.13-1.3-1.94-1.42-3.16-.11-1.13-.49-2.31,.48-3.7h0Z"/><path class="cls-1" d="M85.7,57.48c-1.01,2.57-1.33,5.23-1.89,8.45-.46-3.91-.32-4.5,1.89-8.45Z"/><path class="cls-1" d="M86.96,48.41c.17-.78,.4-1,.84-.87,.37,.11,.69,.32,.6,.75-.07,.31-.11,.76-.67,.51-.33-.15-.64-.33-.76-.38h0Z"/></g></g></g></svg>