<svg width="231" height="260" viewBox="0 0 231 260" fill="none" xmlns="http://www.w3.org/2000/svg">
<path d="M168.624 224.095C164.134 227.766 160.091 230.541 156.658 233.948C144.679 245.832 130.411 253.59 114.576 258.586C109.326 260.239 103.878 260.365 98.4792 259.368C90.7296 257.943 85.0448 253.704 81.8728 246.235C78.6013 238.527 76.7852 230.491 77.9172 222.152C78.6386 216.816 76.9842 213.346 72.3693 211.025C69.2346 209.448 66.2118 207.631 63.0398 206.143C60.4525 204.932 58.0766 205.007 55.5141 207.026C50.1777 211.239 44.6795 215.289 38.945 218.948C28.8568 225.369 22.2889 223.792 12.1136 212.867C3.64249 203.746 0.731709 192.417 0.196822 180.419C-0.325626 168.687 6.404 160.789 17.4874 158.392C23.3462 157.131 28.4961 159.25 32.3522 163.817C34.1186 165.911 35.7855 166.58 38.1987 165.482C38.3977 165.394 38.6341 165.344 38.8455 165.293C44.0451 163.905 47.7396 161.685 47.0679 155.024C46.6822 151.265 47.7645 147.303 48.4362 143.481C48.8094 141.349 48.4984 140.402 46.1349 140.074C41.209 139.381 37.925 136.189 37.0792 131.206C35.9596 124.633 37.0418 118.577 41.2712 113.09C48.7472 103.388 56.8078 94.3175 66.5726 86.9499C68.4882 85.5117 67.7792 84.78 66.2989 83.7329C61.0993 80.0492 56.8451 75.6715 55.0787 69.1745C53.3497 62.8414 53.9219 57.1896 58.5866 52.2821C60.3032 50.4781 61.5969 48.2829 63.6494 46.7691C64.8435 45.8986 64.9804 44.4604 65.1545 43.0727C66.3487 33.8128 68.8116 25.1206 76.014 18.5983C77.1335 17.5764 77.3201 16.2265 77.2454 14.8262C76.6235 3.42165 87.6322 -4.16036 99.437 2.47548C102.447 4.16597 105.159 4.54444 108.431 4.0272C125.224 1.41576 139.765 6.71434 152.615 17.5007C153.859 18.5478 155.003 19.1912 156.57 18.4217C167.542 13.1105 180.516 25.108 177.518 38.6572C176.697 42.3536 175.155 45.5706 171.958 47.7657C170.963 48.4469 170.278 49.3048 170.428 50.6042C170.925 54.8683 170.142 59.0567 169.545 63.2451C169.271 65.1879 169.731 66.7523 171.274 68.14C189.211 84.3889 202.185 104.082 211.104 126.677C214.338 134.864 218.53 142.863 218.63 151.807C218.742 163.085 216.751 173.91 207.845 182.097C204.897 184.81 201.451 185.907 197.682 186.172C195.99 186.298 194.908 186.715 194.498 188.506C193.005 195.117 189.622 200.806 185.653 206.105C183.713 208.691 183.439 210.949 184.696 213.939C186.512 218.254 187.855 222.758 189.335 227.211C189.646 228.144 190.057 229.469 188.85 229.936C187.631 230.403 187.071 229.128 186.723 228.22C185.156 224.17 183.613 220.108 182.22 215.996C181.387 213.535 180.665 212.791 178.389 214.923C174.296 218.733 170.876 222.77 170.303 228.649C170.216 229.545 169.88 230.44 169.545 231.286C169.271 231.98 169.059 233.052 168.002 232.686C167.268 232.434 167.38 231.525 167.48 230.869C167.778 228.964 168.139 227.059 168.661 224.082L168.624 224.095ZM149.953 130.07C151.881 134.397 153.461 132.543 155.414 130.701C158.872 127.434 163.101 125.428 167.679 124.393C181.71 121.227 193.677 132.467 191.699 146.887C190.803 153.434 187.631 158.733 182.805 163.022C181.337 164.322 180.665 165.533 181.586 167.438C183.477 171.336 185.206 175.323 187.669 178.918C191.45 184.444 201.949 184.86 206.464 179.852C213.754 171.765 216.03 162.253 215.134 151.605C213.878 136.807 206.962 124.053 200.692 111.172C193.279 95.9449 182.481 83.0895 170.44 71.3948C167.169 68.2157 166.31 64.8473 167.019 60.5958C167.654 56.7733 168.425 52.9129 167.306 49.0273C166.808 47.3368 167.778 46.6177 168.997 45.7598C175.092 41.4326 176.399 34.3552 172.542 27.2148C169.445 21.4873 163.113 19.3678 156.558 22.0424C154.605 22.8498 153.15 22.6227 151.645 21.2097C149.331 19.0398 147.067 16.7942 144.243 15.2425C132.339 8.73284 119.937 4.84722 106.229 7.52174C103.554 8.03898 101.241 7.48389 98.8648 5.94478C89.61 -0.0602717 81.3753 4.0272 80.3179 15.0785C80.1438 16.9583 79.9199 18.6992 78.4894 20.0617C72.0707 26.2181 69.3839 34.0777 68.5504 42.7573C68.2519 45.8229 67.1821 48.2325 64.744 50.4402C54.8299 59.4352 55.0663 69.1366 64.856 78.283C68.9112 82.0677 74.0237 83.632 78.8004 85.8902C87.6073 90.0534 96.4392 94.3175 106.652 92.5765C107.411 92.4504 108.356 92.4504 108.617 93.4596C108.854 94.3932 108.145 94.9609 107.423 95.3141C105.333 96.3486 103.082 96.5378 100.805 96.3864C93.2547 95.8566 86.2515 93.2956 79.4596 90.1165C74.9069 87.9844 75.0313 88.0349 72.2573 92.1224C64.3584 103.792 59.3205 116.723 55.2902 130.159C50.725 145.373 47.6027 160.625 53.5736 176.244C53.9094 177.114 54.2204 178.111 53.0885 178.615C51.8818 179.158 51.1106 178.325 50.6877 177.341C49.9289 175.562 49.2199 173.746 48.6725 171.879C46.7693 165.381 46.8191 165.407 40.5124 167.804C38.3231 168.636 35.6735 168.939 36.9423 172.471C37.1289 172.976 37.0294 173.695 36.3452 173.884C35.6735 174.074 35.3501 173.531 35.0764 173.014C34.2679 171.513 33.534 169.961 32.6259 168.51C29.0932 162.871 23.2094 160.323 16.8903 161.609C11.0563 162.795 4.31421 169.027 3.8664 174.591C2.49808 191.534 7.33694 205.941 21.2689 216.475C26.2073 220.209 31.0088 219.995 36.0467 216.916C42.9132 212.715 49.7672 208.489 55.9744 203.304C57.4919 202.03 58.8478 201.879 60.6266 202.572C64.7565 204.175 68.6002 206.37 72.5434 208.338C74.5586 209.347 76.3747 211.933 78.365 211.479C80.7284 210.949 80.517 207.543 81.6365 205.499C86.0524 197.324 94.3618 192.202 102.435 193.666C114.837 195.911 119.278 200.163 122.363 210.028C122.823 211.492 123.495 213.826 121.716 214.28C119.825 214.759 120.161 212.274 119.788 211C116.541 199.986 106.614 196.088 97.2477 196.908C90.4808 197.501 83.5397 205.537 82.2709 213.371C81.1762 220.133 80.2682 227.022 81.6987 233.847C83.067 240.344 84.4478 247.03 89.8713 251.534C97.3846 257.779 106.117 257.274 114.7 254.89C122.985 252.594 130.672 248.544 138.198 244.419C148.609 238.704 156.284 229.305 165.887 222.455C168.923 220.297 170.527 217.383 171.05 213.611C171.423 210.911 172.045 208.123 173.202 205.689C176.349 199.065 175.764 192.127 175.615 185.163C175.565 182.715 174.52 181.921 172.269 182.11C169.793 182.312 167.306 182.35 164.83 182.539C152.49 183.498 141.121 180.205 130.336 174.44C129.329 173.91 127.711 173.14 128.669 171.651C129.453 170.44 130.759 171.487 131.692 172.005C142.701 178.136 154.518 180.255 166.982 179.738C175.627 179.385 175.851 179.334 175.602 170.68C175.54 168.699 175.105 167.892 173.04 168.611C170.9 169.355 168.674 169.847 166.397 169.772C164.333 169.709 162.715 169.898 163.275 172.699C163.387 173.241 163.101 173.922 162.429 173.973C161.782 174.023 161.496 173.443 161.384 172.85C161.272 172.295 161.21 171.715 161.098 171.159C160.738 169.431 159.618 168.018 158.1 167.728C156.334 167.4 157.056 169.57 156.384 170.466C155.986 170.995 155.812 171.904 155.016 171.689C153.871 171.387 154.307 170.339 154.555 169.683C155.638 166.807 155.426 164.196 153.796 161.508C152.714 159.717 151.881 158.809 149.928 160.323C149.219 160.878 148.05 161.937 147.328 160.764C146.532 159.477 147.95 158.758 148.871 158.191C150.177 157.396 151.421 156.765 150.761 154.772C150.177 152.98 149.853 151.189 147.39 151.227C146.445 151.227 145.325 151.101 145.089 149.738C145.997 148.767 147.042 149.498 147.987 149.423C149.107 149.334 149.716 148.805 149.604 147.707C149.318 145.032 149.654 142.143 147.079 140.201C146.358 139.646 145.313 139.053 145.649 137.829C146.084 137.324 146.495 137.551 146.942 137.64C147.863 137.842 148.56 139.393 149.592 138.422C150.55 137.501 150.413 136.151 150.139 134.852C149.866 133.552 149.119 132.291 149.99 130.045L149.953 130.07ZM171.535 127.005C162.84 126.601 152.976 133.804 151.719 141.487C150.836 146.849 151.495 147.48 156.521 146.13C156.956 146.016 157.391 145.878 157.839 145.84C159.033 145.739 160.663 145.234 160.924 146.912C161.185 148.603 159.444 148.628 158.3 148.893C152.155 150.344 151.806 150.949 154.12 156.979C154.692 158.455 155.501 159.843 156.247 161.244C158.635 165.672 162.367 167.35 167.243 166.883C175.627 166.075 181.872 161.887 186.139 154.658C193.814 141.639 186.412 127.686 171.535 126.992V127.005ZM72.2449 87.2401C71.7597 87.0761 71.4985 86.8995 71.3617 86.9626C70.7522 87.2527 70.1426 87.5555 69.6078 87.9592C62.6418 93.0938 56.3973 99.0105 50.9116 105.735C48.2496 108.989 45.7866 112.408 43.2863 115.789C39.9526 120.281 39.1068 125.339 40.2636 130.752C41.0348 134.347 44.0078 136.794 47.4659 136.895C51.1231 137.009 50.5882 133.741 51.2226 131.748C55.7878 117.467 60.552 103.3 69.5704 91.0879C70.4785 89.8515 71.3244 88.5647 72.2449 87.2401V87.2401ZM178.389 189.288C178.675 194.662 177.842 199.696 180.79 204.112C181.474 205.146 182.121 206.445 183.166 204.755C186.45 199.431 190.044 194.271 192.022 188.228C192.458 186.879 192.47 185.667 190.94 185.112C187.171 183.737 184.907 180.848 183.153 177.392C182.058 175.209 181.275 175.979 180.105 177.505C177.195 181.328 178.874 185.693 178.376 189.288H178.389ZM176.685 201.563C176.025 203.922 175.553 205.537 175.142 207.177C174.719 208.83 174.309 210.482 173.998 212.16C173.861 212.867 173.401 213.851 174.383 214.267C175.105 214.57 175.553 213.788 176.025 213.334C179.944 209.675 180.056 208.489 176.685 201.563V201.563Z" fill="#951E1A"/>
<path d="M203.255 97.1433C203.367 95.5411 202.919 93.346 203.678 91.2518C204.586 88.7287 206.079 88.2367 207.87 90.1416C208.977 91.3275 209.724 91.1635 211.042 90.7346C213.605 89.8767 215.209 91.2014 214.662 93.8002C213.555 99.0357 210.059 102.858 206.552 106.567C205.407 107.791 204.524 106.656 204.076 105.482C203.106 102.972 203.18 100.335 203.243 97.156L203.255 97.1433ZM213.007 92.9549C211.428 92.6648 210.855 93.3082 210.408 93.9263C208.803 96.1088 207.621 96.7144 207.173 93.2451C207.099 92.69 206.8 92.0845 206.116 92.1223C205.42 92.1601 205.221 92.8035 205.196 93.3586C205.071 96.9289 204.711 100.537 206.178 104.423C208.803 100.587 211.826 97.4966 212.995 92.9423L213.007 92.9549Z" fill="#951E1A"/>
<path d="M79.2854 66.399C74.969 66.4621 69.4335 61.8448 68.6499 57.8456C68.1772 55.436 69.0852 53.8969 71.5358 53.9474C76.8971 54.0357 82.0469 55.2846 86.7241 57.9592C89.4607 59.5235 89.498 61.6303 87.1346 63.7371C84.796 65.8187 81.823 66.0332 79.2979 66.399H79.2854Z" fill="#951E1A"/>
<path d="M78.862 183.359C78.9118 153.586 87.1715 126.298 102.036 101.016L103.728 101.534C88.9876 126.866 81.1384 154.267 78.8496 183.371L78.862 183.359Z" fill="#951E1A"/>
<path d="M116.914 53.6067C112.958 53.5058 108.691 46.8573 110.122 43.2618C110.806 41.5461 112.137 40.9153 113.904 41.1046C117.697 41.4956 121.504 47.0718 120.521 50.8438C120.011 52.7867 118.568 53.4931 116.914 53.6067Z" fill="#951E1A"/>
<path d="M185.628 115.966C185.728 114.704 185.678 113.998 185.865 113.355C186.437 111.361 186.213 108.434 188.763 108.106C191.226 107.791 191.674 110.44 192.308 112.371C192.681 113.506 193.117 114.25 194.423 113.266C195.343 112.572 196.438 112.08 197.446 113.178C198.366 114.187 198.005 115.335 197.558 116.382C195.965 120.129 193.353 123.081 190.318 125.667C188.676 127.055 187.532 126.26 187.134 124.482C186.487 121.492 186.064 118.451 185.641 115.979L185.628 115.966ZM195.941 114.831C193.602 115.234 193.602 117.783 191.736 118.01C190.853 115.499 191.251 112.585 188.614 110.339C187.706 114.389 187.843 117.959 188.564 121.529C188.863 123.031 189.609 123.561 190.84 122.324C192.905 120.243 194.809 118.048 195.941 114.831V114.831Z" fill="#951E1A"/>
<path d="M76.9964 39.3511C75.2798 39.1366 73.9115 38.3544 73.9239 36.1846C73.9239 33.8507 76.8471 31.3275 79.335 31.5294C81.2133 31.6681 82.1711 32.8288 82.1836 34.6959C82.1836 36.9667 79.4843 39.4268 77.0088 39.3637L76.9964 39.3511Z" fill="#951E1A"/>
<path d="M162.529 160.499C165.962 160.852 168.885 159.679 171.622 158.039C176.125 155.339 179.919 151.794 183.091 147.568C183.688 146.761 184.086 145.058 185.516 146.016C186.549 146.723 185.827 147.997 185.255 148.779C180.503 155.188 174.943 160.575 167.057 162.757C165.688 163.136 164.146 163.035 162.703 162.884C161.521 162.757 159.742 162.354 159.904 160.979C160.116 159.162 161.72 160.789 162.529 160.512V160.499Z" fill="#951E1A"/>
<path d="M218.655 77.0088C218.766 75.4066 218.319 73.2114 219.077 71.1172C219.986 68.5941 221.478 68.1021 223.269 70.0071C224.377 71.1929 225.123 71.0289 226.441 70.6C229.004 69.7421 230.609 71.0668 230.061 73.6656C228.954 78.9011 225.459 82.7236 221.951 86.4326C220.807 87.6564 219.923 86.521 219.476 85.3477C218.505 82.8372 218.58 80.2005 218.642 77.0214L218.655 77.0088ZM228.407 72.8204C226.827 72.5302 226.255 73.1736 225.807 73.7918C224.202 75.9743 223.021 76.5798 222.573 73.1105C222.498 72.5554 222.2 71.9499 221.516 71.9877C220.819 72.0256 220.62 72.669 220.595 73.2241C220.471 76.7943 220.11 80.4024 221.578 84.288C224.202 80.4528 227.225 77.362 228.394 72.8077L228.407 72.8204Z" fill="#951E1A"/>
<path d="M167.691 143.392C168.201 139.267 174.01 135.848 178.24 137.185" stroke="#951E1A" stroke-width="2" stroke-miterlimit="10" stroke-linecap="round"/>
</svg>
