<svg width="315" height="290" viewBox="0 0 315 290" fill="none" xmlns="http://www.w3.org/2000/svg">
<path d="M109.746 71.1554C109.746 62.5251 109.565 55.4668 109.79 48.4211C110.115 38.0873 110.283 27.7347 111.139 17.4197C111.183 16.856 111.295 16.2924 111.351 15.7287C111.67 12.4657 113.443 10.6746 116.647 9.96059C122.742 8.60154 128.905 7.69341 135.044 6.59741C143.525 5.08178 151.968 3.35322 160.448 1.85013C166.593 0.760381 172.807 0.234297 179.046 0.102776C190.161 -0.135214 201.284 0.00883276 212.368 0.86685C227.618 2.05054 242.837 3.62253 257.962 5.98991C266.468 7.3239 274.967 8.75185 283.547 9.55976C286.764 9.86038 288.662 11.5639 289.942 14.3947C291.66 18.1838 292.247 22.2359 292.971 26.2567C294.482 34.6615 295.044 43.179 295.8 51.6715C296.637 61.0659 297.536 70.4602 298.329 79.8608C299.116 89.1487 299.965 98.4366 300.527 107.737C301.526 124.421 302.039 141.131 303.481 157.784C304.842 173.529 306.972 189.186 309.045 204.856C310.95 219.267 313.273 233.653 313.698 248.239C313.866 254.026 314.522 259.8 314.89 265.587C315.022 267.629 315.028 269.683 314.947 271.725C314.841 274.524 313.467 276.46 310.713 277.23C309.295 277.625 307.859 278.069 306.404 278.182C299.172 278.752 291.941 279.265 284.696 279.704C273.606 280.368 262.515 281.075 251.418 281.533C242.356 281.908 233.295 282.522 224.215 282.434C217.864 282.372 211.506 282.485 205.155 282.422C191.51 282.278 177.965 283.468 164.495 285.491C151.637 287.426 138.941 286.687 126.358 283.568C122.723 282.666 120.594 280.499 119.701 276.691C116.497 263.057 114.305 249.254 112.638 235.362C112.257 232.206 112.001 229.024 111.869 225.843C111.563 218.233 111.326 210.618 111.133 203.002C110.283 169.22 110.539 135.432 110.158 101.649C110.04 90.965 109.965 80.2679 109.759 71.1554H109.746ZM187.301 1.79376C176.298 2.01922 165.769 2.53905 155.384 4.62459C147.378 6.23416 139.372 7.82494 131.304 9.08378C126.714 9.79775 122.124 10.518 117.608 11.6891C114.861 12.4031 113.431 13.8311 113.187 16.8623C112.694 22.9812 112.125 29.0875 111.988 35.2314C111.832 42.2772 111.401 49.3292 111.47 56.375C111.52 61.9427 111.838 67.5104 111.913 73.0844C112.175 92.1925 111.994 111.301 112.407 130.409C112.944 155.542 112.475 180.687 113.212 205.82C113.456 214.119 113.812 222.411 114.155 230.703C114.274 233.54 114.58 236.377 114.986 239.183C116.765 251.446 118.402 263.727 121.424 275.783C122.242 279.059 123.853 280.969 127.076 281.783C138.529 284.702 150.082 285.497 161.81 283.856C170.565 282.635 179.327 281.345 188.151 280.869C196.413 280.418 204.7 280.361 212.98 280.305C228.855 280.192 244.717 279.86 260.579 278.896C275.847 277.963 291.135 277.336 306.372 275.984C311.924 275.489 312.93 274.687 312.699 269.094C312.393 261.71 311.618 254.352 311.418 246.968C311.081 234.31 309.158 221.816 307.44 209.34C304.199 185.792 301.189 162.231 299.847 138.494C299.091 125.104 298.616 111.689 297.605 98.3114C297.118 91.848 296.562 85.391 295.987 78.9402C295.2 70.1095 294.295 61.2851 293.577 52.4481C292.834 43.2667 292.165 34.0853 290.654 24.9916C290.098 21.6284 289.43 18.2777 288.05 15.1212C286.988 12.6849 285.259 11.376 282.536 11.3384C280.843 11.3134 279.139 11.1443 277.459 10.9063C260.96 8.55769 244.523 5.82081 227.918 4.2175C214.248 2.89603 200.553 2.30105 187.289 1.80002L187.301 1.79376Z" fill="#951E1A"/>
<path d="M68.9235 288.165C64.4521 283.756 62.0728 278.689 58.9004 274.211C55.7655 269.79 52.0186 265.838 49.021 260.852C47.5285 263.445 47.3599 265.975 46.5855 268.293C45.755 270.773 45.0555 273.297 44.3061 275.802C43.588 278.201 42.8886 280.599 42.1579 282.992C41.4585 285.29 41.1525 287.758 39.6225 290C38.4172 288.384 39.2291 287.2 39.4976 286.061C41.1775 278.852 43.5318 271.831 45.8299 264.811C47.3474 260.17 48.1218 255.535 47.5785 250.732C46.954 245.17 47.2849 239.59 47.0102 234.028C46.8603 230.966 46.673 227.897 46.4294 224.841C46.2358 222.367 45.7987 222.16 43.4131 223.194C43.307 223.237 43.207 223.294 43.1071 223.344C34.7765 227.49 26.5957 231.962 17.8528 235.218C15.3486 236.152 14.5868 237.698 14.5555 240.392C14.4369 251.32 15.5672 262.205 15.4048 273.134C15.3674 275.733 15.8045 278.345 15.9981 280.95C16.0543 281.745 16.073 282.547 16.0293 283.336C15.8732 286.217 14.618 288.015 12.4573 288.516C9.87188 289.117 7.13662 287.827 5.8814 285.384C5.08206 283.825 4.94467 282.115 4.89471 280.405C4.53875 268.932 3.48961 257.489 2.97753 246.028C2.60909 237.736 2.92757 229.419 2.709 221.114C2.39676 209.296 1.87843 197.484 1.04162 185.685C0.991661 185.002 0.929213 184.326 0.904233 183.643C-0.0200089 157.615 -0.157396 131.561 0.142358 105.507C0.198562 100.441 2.11574 95.731 3.72692 91.0025C4.01418 90.157 4.51377 89.2677 5.63785 89.3616C6.56209 89.4368 6.93679 90.2322 7.2303 90.965C9.50343 96.6642 11.7953 102.282 11.914 108.639C12.2137 125.467 12.4198 142.302 12.5572 159.13C12.6321 168.331 13.3315 177.531 13.6625 186.731C13.8499 191.848 13.8311 196.971 13.9623 202.088C14.0684 206.29 14.3182 210.474 13.9935 214.689C13.5376 220.601 14.3557 226.5 14.5805 232.406C14.6617 234.555 14.899 234.63 17.0847 233.734C24.0228 230.903 30.8047 227.734 37.4618 224.29C39.5788 223.194 41.7208 222.148 43.919 221.227C45.5739 220.538 46.317 219.467 46.5605 217.663C46.9227 214.939 46.9789 212.221 46.9415 209.49C46.8978 206.772 46.6105 206.415 43.8503 206.027C38.0987 205.219 32.903 203.14 28.3879 199.451C25.1656 196.814 22.6489 193.62 21.1938 189.681C17.5468 179.785 21.4187 169.708 31.0295 164.009C42.5263 157.189 58.7193 158.986 68.3926 168.161C78.3158 177.575 77.4352 192.086 66.4068 200.509C62.3414 203.616 57.7201 205.369 52.6555 205.977C48.8025 206.434 48.7338 206.528 48.69 210.355C48.6713 212.29 48.7213 214.231 48.5776 216.154C48.409 218.459 48.9648 220.043 51.444 220.814C53.636 221.496 55.3658 223.05 56.8521 224.822C62.1228 231.097 61.1985 239.703 54.6976 244.744C54.3417 245.02 53.9732 245.302 53.5798 245.521C48.8274 248.17 49.5206 247.306 49.3645 253.268C49.2521 257.671 50.882 261.266 53.6422 264.429C58.9691 270.541 63.2219 277.399 67.5871 284.188C68.1741 285.102 69.1608 285.86 68.9235 288.165V288.165ZM10.359 248.972C8.93515 249.899 7.76735 249.078 6.59332 248.909C5.54418 248.759 5.10079 249.191 5.05083 250.168C5.02585 250.738 5.06332 251.308 5.05083 251.871C4.83226 261.673 6.07499 271.393 6.5496 281.157C6.6183 282.535 6.83062 283.887 7.60499 285.059C8.57919 286.543 10.4152 287.251 12.0638 286.831C13.8249 286.386 14.2808 285.046 14.3057 283.455C14.3245 281.977 14.4744 280.468 14.2433 279.027C13.6688 275.401 13.8686 271.762 13.8186 268.13C13.7499 262.894 13.8624 257.652 13.5126 252.435C12.7945 241.65 12.8569 230.847 12.4011 220.062C12.0389 211.545 12.3449 202.996 12.1325 194.466C11.8765 184.238 11.2208 174.017 11.0272 163.784C10.665 144.907 11.4206 126.012 10.2965 107.142C10.1467 104.612 9.77821 102.176 8.95388 99.7956C7.93597 96.8646 7.81731 96.8333 4.81977 97.3782C3.78312 97.566 3.18986 98.0232 2.8901 98.9877C2.35305 100.729 1.75354 102.451 1.71607 104.299C1.57868 111.232 0.816805 118.14 1.0104 125.092C1.24146 133.39 1.14778 141.688 1.41007 149.993C1.74105 160.677 1.92215 171.368 2.3468 182.053C2.93382 196.595 3.75814 211.125 4.35141 225.661C4.57622 231.229 4.55749 236.809 4.42634 242.377C4.3639 245.12 5.55042 246.604 7.96719 247.5C8.7478 247.788 9.83441 247.631 10.359 248.972ZM73.5821 183.493C73.5197 178.877 71.8148 174.687 68.6674 170.986C59.2376 159.92 41.165 158.592 29.9429 166.627C20.6006 173.316 17.9652 186.888 27.3076 196.307C36.9497 206.033 54.2855 207.593 65.4138 199.125C70.4659 195.28 73.4447 190.251 73.5884 183.487L73.5821 183.493ZM49.4332 245.533C54.9662 243.135 57.9699 239.371 58.4196 233.985C58.8567 228.743 55.703 225.273 51.5752 222.668C49.5144 221.365 48.6463 221.866 48.5964 224.221C48.4652 231.141 49.1834 238.024 49.4332 245.533V245.533Z" fill="#951E1A"/>
<path d="M214.273 272.852C204.369 272.896 195.282 272.608 186.24 273.585C180.039 274.255 173.831 274.925 167.667 275.852C156.72 277.499 145.96 276.51 135.263 273.992C131.666 273.147 129.68 270.904 128.874 267.297C126.276 255.742 124.54 244.049 122.948 232.331C122.505 229.068 122.211 225.768 122.08 222.48C121.755 214.526 121.543 206.566 121.324 198.605C120.45 166.182 120.831 133.753 120.375 101.324C120.163 86.3054 119.875 71.2869 120.081 56.2747C120.213 46.7301 120.525 37.1791 121.349 27.6533C121.786 22.549 122.692 21.4029 127.763 20.4196C141.345 17.7829 154.915 15.1024 168.542 12.7037C176.26 11.3447 184.116 11.3823 191.948 11.5701C198.411 11.7267 204.862 11.7643 211.325 12.2653C226.369 13.4428 241.345 15.0899 256.239 17.5324C261.828 18.4531 267.404 19.4865 273.069 19.9249C279.251 20.4008 281.418 22.2359 282.811 28.4299C283.66 32.2001 284.309 36.0205 284.84 39.8471C286.295 50.3312 286.845 60.8968 287.725 71.4372C288.425 79.8232 289.237 88.1968 289.961 96.5828C290.323 100.773 290.704 104.969 290.929 109.165C291.485 119.499 291.897 129.839 292.478 140.173C293.146 151.984 294.108 163.765 295.463 175.52C297.692 194.835 300.559 214.075 302.463 233.433C302.819 237.053 302.844 240.698 303.05 244.331C303.362 249.78 303.812 255.222 303.993 260.677C304.168 266.032 302.463 268.067 297.349 268.687C292.509 269.27 287.65 269.739 282.792 270.028C272.719 270.629 262.627 270.986 252.554 271.612C239.527 272.426 226.5 273.009 214.279 272.846L214.273 272.852ZM240.951 270.616C235.1 270.416 229.279 269.708 223.44 269.589C214.591 269.408 205.749 269.495 196.912 270.096C194.289 270.272 192.953 269.539 192.972 268.393C192.99 267.278 194.402 266.451 196.875 266.426C203.113 266.37 209.327 265.562 215.572 265.9C223.728 266.345 231.896 266.439 240.058 266.514C241.295 266.527 242.531 266.79 243.761 266.99C244.554 267.122 245.541 267.347 245.46 268.324C245.329 269.971 246.315 269.934 247.383 269.871C250.437 269.689 253.491 269.458 256.545 269.289C266.393 268.756 276.247 268.293 286.095 267.71C289.599 267.504 293.102 267.165 296.581 266.664C301.539 265.95 301.97 265.493 301.795 260.596C301.57 254.345 301.102 248.107 300.752 241.863C300.552 238.344 300.571 234.799 300.153 231.304C297.923 212.565 295.594 193.833 293.277 175.101C291.753 162.794 290.91 150.431 290.211 138.056C289.636 127.954 289.218 117.839 288.662 107.737C288.431 103.541 288.056 99.3447 287.688 95.1548C286.945 86.6623 286.108 78.1761 285.421 69.6773C284.578 59.2496 283.991 48.8031 282.567 38.4317C281.98 34.1542 281.474 29.8516 279.794 25.8057C278.957 23.7891 277.771 22.3611 275.354 22.1795C265.387 21.428 255.62 19.2547 245.735 17.8894C224.808 15.0022 203.832 13.0357 182.686 13.4553C176.679 13.5743 170.684 14.0753 164.757 15.1776C156.395 16.737 148.052 18.3779 139.69 19.9249C135.675 20.6701 131.647 21.2902 127.669 22.2547C125.034 22.8935 123.497 24.1273 123.348 27.0583C123.135 31.2544 122.317 35.4381 122.33 39.6279C122.348 49.7425 121.705 59.8383 121.924 69.9717C122.455 94.4221 122.467 118.885 122.654 143.348C122.829 166.896 123.21 190.445 123.61 213.987C123.697 218.985 123.878 224.014 124.478 228.968C125.977 241.381 127.65 253.775 130.492 265.988C131.341 269.639 133.196 271.643 136.893 272.508C147.877 275.082 158.887 275.27 170.003 273.616C178.303 272.376 186.627 271.305 195.033 271.149C205.58 270.961 216.128 270.767 226.675 270.623C231.434 270.56 236.193 270.61 240.951 270.61V270.616Z" fill="#951E1A"/>
<path d="M209.976 9.92935C208.434 10.0045 207.185 9.05255 207.191 7.87512C207.197 6.61001 208.022 6.10898 209.158 6.03383C210.52 5.94615 211.819 6.94195 211.794 8.08806C211.762 9.33438 210.932 9.81662 209.983 9.92309L209.976 9.92935Z" fill="#951E1A"/>
<path d="M36.0566 179.416C36.1004 178.289 35.888 176.685 36.5687 175.182C36.856 174.543 37.2494 173.955 38.0238 173.961C38.7732 173.967 39.3352 174.468 39.535 175.138C40.503 178.401 41.1525 181.727 40.9963 185.147C40.9464 186.224 40.4468 187.176 39.279 187.382C37.8864 187.627 37.2494 186.675 36.8248 185.547C36.1253 183.712 36.0504 181.796 36.0691 179.416H36.0566Z" fill="#951E1A"/>
<path d="M60.3116 181.746C60.2866 182.685 60.4115 183.944 59.787 185.096C59.3873 185.823 58.8752 186.412 57.976 186.405C57.2204 186.399 56.7083 185.911 56.446 185.259C54.9722 181.664 54.8973 178.019 56.2149 174.362C56.4085 173.817 56.8457 173.41 57.4826 173.391C58.2633 173.366 58.7316 173.861 59.0064 174.512C59.9431 176.729 60.3178 179.053 60.3116 181.746V181.746Z" fill="#951E1A"/>
<path d="M35.0574 193.426C38.3547 194.679 41.3959 196.439 44.9992 196.72C48.7149 197.008 52.2058 196.338 55.5218 194.61C58.5631 193.025 60.9049 190.382 64.3521 188.247C62.5348 192.969 55.4844 197.641 49.6641 198.305C44.0687 198.944 38.9854 197.747 35.0574 193.426V193.426Z" fill="#951E1A"/>
<path d="M182.898 193.006C181.781 192.054 180.831 192.33 179.957 192.23C173.437 191.472 170.096 187.332 170.665 180.775C171.083 175.94 172.669 171.462 174.674 167.097C176.966 162.112 180.001 157.583 183.111 153.099C183.666 152.304 184.634 151.684 184.478 150.494C183.829 149.761 182.973 150.024 182.236 150.062C177.309 150.306 172.632 146.661 173.381 139.315C173.718 136.002 174.768 132.876 176.191 129.876C177.803 126.476 179.751 123.275 181.912 120.2C182.424 119.474 183.179 118.872 183.192 117.864C182.786 117.069 182.024 117.25 181.387 117.257C171.451 117.357 162.54 110.693 160.76 98.3865C158.987 86.1175 162.815 75.2764 169.797 65.3748C172.988 60.8467 176.966 57.1704 181.887 54.5775C182.655 54.1767 183.392 53.5567 184.372 53.7947C184.578 54.421 184.079 54.6026 183.735 54.7842C173.256 60.3644 167.305 69.5145 163.795 80.4809C161.834 86.606 161.023 92.894 162.421 99.3197C163.914 106.184 167.449 111.42 174.024 114.319C177.253 115.741 180.638 115.703 184.054 115.547C185.609 115.478 186.433 114.363 187.345 113.361C193.259 106.866 199.703 100.979 207.022 96.1006C210.426 93.8334 213.91 91.6602 217.845 90.4264C219.531 89.9003 221.485 88.9358 222.872 90.7834C224.246 92.6184 222.884 94.2906 221.841 95.7248C217.351 101.931 211.231 106.265 204.749 110.079C199.647 113.086 194.258 115.497 188.381 116.593C187.089 116.831 186.065 117.463 185.271 118.503C181.443 123.482 178.09 128.73 176.066 134.743C175.248 137.166 175.061 139.64 175.248 142.152C175.523 145.841 177.659 147.895 181.281 148.327C184.841 148.753 187.507 147.713 189.849 144.795C195.719 137.498 202.67 131.298 210.27 125.843C212.674 124.121 215.172 122.549 218.007 121.603C219.094 121.24 220.299 120.877 221.161 121.954C221.979 122.968 221.635 124.133 221.061 125.16C219.381 128.173 217.139 130.741 214.604 133.039C207.147 139.803 199.148 145.715 189.449 148.916C188.338 149.285 187.432 149.893 186.708 150.826C180.894 158.329 175.86 166.27 173.188 175.495C172.363 178.339 171.876 181.251 172.482 184.245C173.25 188.027 175.623 190.144 179.445 190.583C182.742 190.958 185.09 190.075 187.239 187.169C194.957 176.723 204.643 168.356 215.684 161.573C218.294 159.97 221.017 158.535 223.958 157.621C225.145 157.252 226.381 156.92 227.605 156.87C230.047 156.763 231.19 158.322 230.409 160.627C229.666 162.819 228.211 164.579 226.656 166.258C220.099 173.322 212.374 178.877 204.162 183.787C199.079 186.831 193.746 189.336 188.044 190.984C186.564 191.409 185.378 192.123 184.566 193.495C182.823 196.445 181.281 199.482 180.457 202.827C179.064 208.482 181.518 211.651 187.264 211.808C192.99 211.964 198.18 209.954 203.319 207.824C207.303 206.177 211.081 204.073 214.891 202.044C218.101 200.334 220.212 197.491 222.635 194.954C226.956 190.426 231.49 186.124 236.785 182.748C238.103 181.909 239.87 180.08 241.194 181.79C242.312 183.236 240.301 184.589 239.258 185.691C234.15 191.096 228.018 195.217 221.954 199.432C214.941 204.298 210.944 211.376 208.409 219.311C207.328 222.693 209.295 224.828 212.893 224.634C215.291 224.503 217.551 223.72 219.787 222.868C226.812 220.187 233.251 216.323 239.82 212.728C241.613 211.745 243.411 210.781 245.247 209.891C246.053 209.503 246.946 209.196 247.826 209.077C250.043 208.776 251.105 209.847 250.58 212.058C250.056 214.263 249.2 216.386 248.495 218.547C247.964 220.169 247.358 221.778 247.452 223.526C247.558 225.486 248.332 226.212 250.262 226.006C252.092 225.805 253.734 224.997 255.376 224.214C257.219 223.338 259.042 222.411 260.909 221.584C261.628 221.265 262.496 221.052 263.089 221.835C263.557 222.455 263.314 223.181 262.951 223.757C261.615 225.905 260.528 228.248 258.468 230.089C257.874 228.667 258.811 227.922 259.161 227.027C259.529 226.1 260.441 225.411 260.404 224.252C259.411 223.613 258.686 224.409 257.924 224.747C255.539 225.805 253.203 227.014 250.624 227.521C247.527 228.135 245.853 226.701 245.809 223.532C245.778 221.434 246.496 219.517 247.183 217.582C247.833 215.766 248.551 213.956 249.038 212.096C249.4 210.699 248.776 210.198 247.345 210.611C245.372 211.181 243.605 212.24 241.825 213.236C236.367 216.273 230.959 219.392 225.32 222.073C222.341 223.488 219.306 224.766 216.096 225.53C214.554 225.899 212.999 226.244 211.387 226.05C207.934 225.636 206.154 223.356 206.691 219.893C207.153 216.937 208.296 214.2 209.808 211.639C211.181 209.309 212.661 207.048 214.254 204.511C212.799 204.549 211.95 205.351 210.982 205.839C204.587 209.09 198.055 211.958 190.923 213.16C188.893 213.505 186.851 213.599 184.834 213.173C180.363 212.24 178.052 209.039 178.602 204.486C178.964 201.524 179.97 198.743 181.331 196.094C181.843 195.098 182.343 194.09 182.898 192.981V193.006ZM188.05 188.885C189.431 189.324 190.13 188.873 190.854 188.591C203.275 183.756 214.073 176.372 223.734 167.272C225.613 165.5 227.424 163.565 228.573 161.172C228.948 160.383 229.485 159.475 228.661 158.654C228.018 158.016 227.168 158.21 226.406 158.404C223.303 159.181 220.418 160.489 217.682 162.118C207.965 167.898 199.379 175.063 191.997 183.65C190.617 185.253 189.043 186.731 188.05 188.885V188.885ZM189.081 114.42C189.886 115.04 190.617 114.557 191.348 114.351C195.063 113.286 198.623 111.814 201.995 109.923C208.652 106.19 214.903 101.919 219.793 95.9252C220.505 95.0547 221.148 94.0839 221.598 93.0631C222.097 91.9357 221.473 91.2656 220.305 91.3846C218.594 91.56 217.045 92.299 215.515 93.0505C206.036 97.7352 198.111 104.449 190.854 112.033C190.18 112.741 189.262 113.317 189.081 114.42ZM190.992 146.849C202.051 141.895 211.506 135.338 218.856 125.931C219.2 125.492 219.493 124.979 219.681 124.453C220.087 123.313 219.481 122.636 218.319 122.993C216.577 123.532 215.016 124.465 213.492 125.449C205.143 130.841 198.105 137.711 191.466 145.039C191.16 145.377 190.879 145.734 190.992 146.849V146.849ZM238.272 183.925C233.001 186.975 228.567 191.002 224.552 195.53C229.648 192.274 234.525 188.76 238.272 183.925V183.925Z" fill="#951E1A"/>
</svg>
