<?xml version="1.0" encoding="UTF-8"?><svg id="Layer_2" xmlns="http://www.w3.org/2000/svg" viewBox="0 0 370 381.68"><defs><style>.cls-1{fill:none;}.cls-1,.cls-2,.cls-3,.cls-4{stroke:#000;stroke-miterlimit:10;}.cls-1,.cls-4{stroke-width:3px;}.cls-5{font-size:35px;}.cls-5,.cls-3,.cls-4,.cls-6{fill:#fff;}.cls-5,.cls-6{font-family:HelveticaNeue-Bold, 'Helvetica Neue';}.cls-6{font-size:36px;}</style></defs><g id="Layer_6"><circle class="cls-1" cx="185" cy="191.19" r="183.5"/><circle class="cls-2" cx="185" cy="191.19" r="174.5"/><circle class="cls-3" cx="185.4" cy="191.03" r="118.7"/><path class="cls-2" d="M174.29,133.47l-.18-11.06c-.01-.67,.44-1.21,1-1.22l18.83-.31c.56,0,1.03,.52,1.04,1.19l.18,11.1c0,.47-.4,.78-.76,.57-3.3-1.94-16.01-1.74-19.3,.29-.36,.22-.8-.07-.8-.56Z"/><g><path class="cls-2" d="M190.56,132.27l16.73-3.53c.14-.03,.22-.19,.14-.32l-4.47-7.71c-.07-.12-.23-.15-.34-.05l-12.27,11.24c-.16,.15-.02,.42,.19,.37Z"/><path class="cls-2" d="M190.69,132.37l19.68,7.05c.17,.06,.35-.06,.36-.24l.29-10.9c0-.17-.15-.3-.32-.27l-19.97,3.84c-.27,.05-.29,.42-.04,.51Z"/></g><g><path class="cls-2" d="M180.38,132.13l-16.88-2.75c-.15-.02-.23-.18-.16-.32l4.11-7.91c.06-.12,.23-.16,.33-.07l12.77,10.66c.17,.14,.04,.42-.17,.38Z"/><path class="cls-2" d="M180.25,132.23l-19.33,7.96c-.17,.07-.35-.05-.37-.23l-.8-10.87c-.01-.17,.14-.31,.3-.28l20.13,2.91c.27,.04,.31,.41,.06,.51Z"/></g><path class="cls-2" d="M222.25,233.19c9.94-94.16-81.85-93.44-73.03-2.29,0,.04-.06,.06-.07,.02-49.86-133.04,130.57-128.23,73.11,2.28-.02,.04,0,.04,0,0Z"/><path class="cls-2" d="M182.44,166.9c-26.23,2.88-35.75,40.74-30.14,66.02,3.9,17.57,20.51,39.87,36.6,38.54,16.6-1.38,30.12-30.48,31.6-46.59,2.25-24.4-11.19-60.92-38.07-57.97Z"/><path class="cls-4" d="M193.64,143.28c.8,12-8,17.6-8,17.6,0,0-7.8-2.76-9.4-14.76-.87-6.54,1.1-15.12,6.83-15.94s10.13,6.51,10.57,13.09Z"/><path class="cls-4" d="M214.02,152.79c-3.78,9.07-11.62,10.12-11.62,10.12,0,0-2.79-4.98-.92-14.06,1.24-5.98,6.16-10.69,10.24-9.31s4.36,8.28,2.29,13.25Z"/><path class="cls-4" d="M226.38,169.14c-7.31,5.32-14.46,1.9-14.46,1.9,0,0-.14-5.58,5.54-11.96,3.74-4.2,10.07-5.34,12.93-1.98s0,9.13-4.01,12.04Z"/><path class="cls-4" d="M169.64,147.32c5.02,9.83-.37,17.74-.37,17.74,0,0-5.85,.22-13.28-9.04-6.25-7.79-4.55-13.15-.02-15.92s10.91,1.82,13.66,7.21Z"/><path class="cls-4" d="M146.25,173.76c10.27,.85,14.04-1.24,14.04-1.24,0,0-1.59-4.94-8.85-9.41-4.78-2.94-11.01-2.68-12.64,.85-1.62,3.53,1.38,9.29,7.45,9.79Z"/><path class="cls-2" d="M156.56,253.79c-.15-.28-.53-.31-.73-.06-1.39,1.76-2.78,3.53-4.16,5.29-.15,.19-.11,.46,.16,.68,4.73,4.65,10.19,9.56,16.42,14.49,6.84,5.41,13.44,9.93,19.53,13.68,.02,.01,.21,.1,.39,0,.13-.08,.24-.22,.24-.4l.05-11.16c0-.15-.07-.29-.2-.37-3.71-.47-11.01-1.74-18.01-6.74-7.62-5.44-11.83-11.84-13.69-15.4Z"/><path class="cls-2" d="M191.25,276.6c0-.24,.15-.45,.38-.53,3.41-1.15,8.84-4.1,14.5-9.91,6.29-6.46,9-13.55,10.14-17.35,.09-.29,.45-.38,.67-.17,1.59,1.52,3.17,3.04,4.76,4.56,.17,.17,.18,.44-.04,.7-3.62,5.33-7.53,11.33-12.83,16.88-3.56,3.74-13.98,13.18-16.84,15.76-.28,.26-.73,.05-.73-.33v-9.6Z"/><path class="cls-2" d="M304.25,311.19c3.77-3.85-80-55-80-55-3,6-22.86,34.07-34,35-12,1-37.9-26.53-40-29-7,11-27.74,14.01-37,19-13,7-35,33-35,33-18.14,14.76,198.88,24.71,226-3Z"/><text class="cls-6" transform="translate(62.4 139.93) rotate(-62.33)"><tspan x="0" y="0">S</tspan></text><text class="cls-6" transform="translate(73.88 118.17) rotate(-51.56)"><tspan x="0" y="0">A</tspan></text><text class="cls-6" transform="translate(90.79 97.89) rotate(-43.24)"><tspan x="0" y="0">I</tspan></text><text class="cls-6" transform="translate(99.43 89.09) rotate(-34.47)"><tspan x="0" y="0">N</tspan></text><text class="cls-6" transform="translate(122.58 73.61) rotate(-23.38)"><tspan x="0" y="0">T</tspan></text><text class="cls-6" transform="translate(144.66 64.64) rotate(-15.64)"><tspan x="0" y="0"> </tspan></text><text class="cls-6" transform="translate(155.93 61.05) rotate(-7.34)"><tspan x="0" y="0">B</tspan></text><text class="cls-6" transform="translate(182.21 57.81) rotate(3.97)"><tspan x="0" y="0">A</tspan></text><text class="cls-6" transform="translate(207.91 59.63) rotate(15.43)"><tspan x="0" y="0">K</tspan></text><text class="cls-6" transform="translate(233.98 66.91) rotate(27.2)"><tspan x="0" y="0">H</tspan></text><text class="cls-6" transform="translate(258.81 80.5) rotate(35.88)"><tspan x="0" y="0">I</tspan></text><text class="cls-6" transform="translate(269.11 87.63) rotate(43.66)"><tspan x="0" y="0">T</tspan></text><text class="cls-6" transform="translate(283.95 101.44) rotate(52.94)"><tspan x="0" y="0">A</tspan></text><text class="cls-6" transform="translate(298.06 120.84) rotate(60.18)"><tspan x="0" y="0">’</tspan></text><text class="cls-6" transform="translate(304.25 130.95) rotate(68.24)"><tspan x="0" y="0">S</tspan></text><text class="cls-5" transform="translate(45.86 272.28) rotate(57.13)"><tspan x="0" y="0">T</tspan></text><text class="cls-5" transform="translate(60.92 294.77) rotate(47.21)"><tspan x="0" y="0">E</tspan></text><text class="cls-5" transform="translate(80.6 315.2) rotate(37.39)"><tspan x="0" y="0">L</tspan></text><text class="cls-5" transform="translate(101.87 331) rotate(27.25)"><tspan x="0" y="0">A</tspan></text><text class="cls-5" transform="translate(128.24 343.61) rotate(19.2)"><tspan x="0" y="0"> </tspan></text><text class="cls-5" transform="translate(141.88 348.14) rotate(13.87)"><tspan x="0" y="0">I</tspan></text><text class="cls-5" transform="translate(157.12 352.08) rotate(5.4)"><tspan x="0" y="0">N</tspan></text><text class="cls-5" transform="translate(188.86 354.38) rotate(-5.45)"><tspan x="0" y="0">S</tspan></text><text class="cls-5" transform="translate(217.11 351.12) rotate(-15.54)"><tspan x="0" y="0">T</tspan></text><text class="cls-5" transform="translate(242.49 343.32) rotate(-23.17)"><tspan x="0" y="0">I</tspan></text><text class="cls-5" transform="translate(256.76 337.23) rotate(-30.75)"><tspan x="0" y="0">T</tspan></text><text class="cls-5" transform="translate(280.01 323.01) rotate(-41.32)"><tspan x="0" y="0">U</tspan></text><text class="cls-5" transform="translate(303.37 301.49) rotate(-51.88)"><tspan x="0" y="0">T</tspan></text><text class="cls-5" transform="translate(319.74 279.9) rotate(-61.88)"><tspan x="0" y="0">E</tspan></text></g></svg>